<?xml version="1.0" encoding="UTF-8" standalone="no"?>
<svg
   version="1.1"
   width="2566.0444"
   height="950.91272"
   id="svg19"
   sodipodi:docname="blueorange_w.svg"
   inkscape:version="1.3.2 (091e20e, 2023-11-25, custom)"
   xmlns:inkscape="http://www.inkscape.org/namespaces/inkscape"
   xmlns:sodipodi="http://sodipodi.sourceforge.net/DTD/sodipodi-0.dtd"
   xmlns="http://www.w3.org/2000/svg"
   xmlns:svg="http://www.w3.org/2000/svg">
  <defs
     id="defs19" />
  <sodipodi:namedview
     id="namedview19"
     pagecolor="#ffffff"
     bordercolor="#000000"
     borderopacity="0.25"
     inkscape:showpageshadow="2"
     inkscape:pageopacity="0.0"
     inkscape:pagecheckerboard="0"
     inkscape:deskcolor="#d1d1d1"
     inkscape:zoom="0.38518519"
     inkscape:cx="1282.5"
     inkscape:cy="473.79808"
     inkscape:window-width="1920"
     inkscape:window-height="1017"
     inkscape:window-x="-8"
     inkscape:window-y="-8"
     inkscape:window-maximized="1"
     inkscape:current-layer="svg19" />
  <path
     d="m 183.89885,195.19614 c 1.4,0.005 1.4,0.005 2.82828,0.0102 42.75535,0.22291 85.10683,13.10275 119.92172,38.42728 0.9668,0.6948 1.93359,1.38961 2.92969,2.10547 32.24551,23.66066 53.9817,52.29103 62.6875,91.6875 0.59224,4.96156 0.60817,9.90192 0.63281,14.89453 0.0309,1.53817 0.0309,1.53817 0.0625,3.10742 0.0688,13.61577 -4.04805,26.9422 -13.4375,37.08008 -11.95673,11.09118 -25.93608,12.72835 -41.49609,12.44141 -22.0243,-0.93347 -42.84934,-12.74202 -57.62891,-28.69141 -10.66364,-12.53904 -21.79881,-31.52934 -20.75,-48.625 1.4375,-3.5625 1.4375,-3.5625 3,-6 4.43282,0.48994 6.33131,1.85949 9.375,5.0625 0.78246,0.81211 1.56492,1.62422 2.37109,2.46094 1.97523,2.17035 3.83608,4.39205 5.69141,6.66406 6.5319,7.55533 15.83968,11.77317 25.65234,13.09375 6.57313,0.31239 13.06297,-1.58662 18.28516,-5.59375 5.66013,-5.7949 6.75936,-11.96836 6.875,-19.8125 -0.26771,-19.92231 -12.1161,-37.45539 -25.375,-51.5 -23.18955,-22.35215 -53.13629,-28.06592 -84.375,-27.64844 -14.76942,0.37034 -27.36714,4.72483 -40.5,11.27344 -1.03641,0.51176 -2.07281,1.02352 -3.14063,1.55078 -35.44302,19.09564 -54.39901,59.9146 -65.796872,96.57813 -19.90909,66.57629 -17.13897,137.09819 -0.0625,203.87109 0.178535,0.69869 0.35707,1.39738 0.541016,2.11725 15.672876,60.99874 39.347586,119.7902 73.458986,172.88275 0.39026,0.60763 0.78053,1.21526 1.18262,1.84131 5.32904,8.24405 11.03972,16.22554 16.81738,24.15869 0.46422,0.63986 0.92845,1.27972 1.40674,1.93896 7.38055,10.13669 15.23972,19.71365 23.59326,29.06104 0.97985,1.11121 0.97985,1.11121 1.97949,2.24487 5.58811,6.29196 11.40026,12.32113 17.34912,18.26905 1.54312,1.54531 3.07803,3.09848 4.61279,4.6521 6.36044,6.39638 12.97508,12.23252 20.0586,17.83398 1.24358,1.02408 2.48482,2.05102 3.72265,3.08203 9.32318,7.66204 19.09943,14.44238 29.27735,20.91797 0.93465,0.59676 0.93465,0.59676 1.88818,1.20557 56.65815,35.86017 126.38482,56.59626 193.20557,41.69287 26.2028,-6.25423 47.39472,-18.53261 66.90625,-36.89844 0.6007,-0.54785 1.20141,-1.0957 1.82031,-1.66016 10.33786,-9.7849 18.01215,-22.15442 25.17969,-34.33984 0.35836,-0.60538 0.71672,-1.21075 1.08594,-1.83447 16.52488,-28.28955 24.14846,-61.78469 26.91406,-94.16553 0.11215,-1.31098 0.2243,-2.62195 0.33984,-3.97266 6.55846,-89.75204 -33.18356,-180.19808 -82.33984,-278.02734 -0.52078,-0.95922 -1.04156,-1.91845 -1.57813,-2.90674 -19.37213,-35.525 -41.91269,-68.68418 -69.17187,-98.6206 -1.59482,-1.75264 -3.17692,-3.51689 -4.75,-5.28907 -4.23024,-4.73967 -8.45797,-9.23422 -13.32422,-13.32031 -2.173,-1.8609 -4.26057,-3.79857 -6.34595,-5.75659 -5.98182,-5.59491 -12.25386,-10.67924 -18.80981,-15.58862 -4.19089,-3.1495 -8.3517,-6.3388 -12.52002,-9.51807 -1.81767,-1.38417 -3.63538,-2.76828 -5.45313,-4.15234 -8.43657,-6.42809 -16.85277,-12.88007 -25.16796,-19.46485 -1.99406,-1.54575 -1.99406,-1.54575 -4.94141,-2.94531 -0.63938,-0.47438 -1.27875,-0.94875 -1.9375,-1.4375 -0.375,-3.125 -0.375,-3.125 0,-6 1,-1 1,-1 3.98437,-1.27734 4.83002,0.0798 8.86753,1.85684 13.26563,3.71484 1.31762,0.54624 1.31762,0.54624 2.66187,1.10352 2.70457,1.13407 5.39753,2.29217 8.08813,3.45898 0.77424,0.33145 1.54849,0.6629 2.34619,1.00439 21.50191,9.31171 41.9403,21.94773 60.65381,35.99561 0.57847,0.42974 1.15693,0.85948 1.75293,1.30225 11.97021,8.91435 23.22954,18.64125 34.24707,28.69775 0.91008,0.81727 1.82016,1.63453 2.75781,2.47656 10.27156,9.28549 20.5101,18.85556 29.44922,29.44922 1.97546,2.28533 4.02536,4.48827 6.08765,6.69507 5.04731,5.40288 9.88827,10.89781 14.51782,16.66821 2.22517,2.75762 4.51527,5.4507 6.8125,8.14844 20.33848,24.38091 38.5038,51.07853 54.375,78.5625 0.49017,0.84498 0.98033,1.68996 1.48535,2.56055 39.71088,68.76821 69.82449,146.5738 81.51465,238.43945 0.16629,1.7209 0.16629,1.7209 0.33594,3.47656 4.67971,56.03011 -4.9487,122.41327 -39.33594,168.52344 -0.38027,0.524 -0.76055,1.04801 -1.15234,1.58789 -26.4658,36.31648 -64.43064,56.95174 -108.29956,64.15723 -9.7249,1.52579 -19.30845,2.41217 -29.15357,2.49316 -1.48433,0.0148 -1.48433,0.0148 -2.99866,0.0298 -97.01449,0.765 -184.59699,-38.50286 -258.70788,-99.87992 -2.2243,-1.82924 -4.48619,-3.60882 -6.75049,-5.38818 -11.50316,-9.19483 -22.34912,-19.12734 -33.05371,-29.22949 -1.89297,-1.77913 -3.79654,-3.54612 -5.7041,-5.30957 -20.59575,-19.05423 -20.59575,-19.05423 -29.64063,-29.70313 -1.60847,-1.83708 -3.29745,-3.54689 -5.03906,-5.25781 -2.93495,-2.89616 -5.67729,-5.89929 -8.36719,-9.02344 -1.68191,-1.95298 -3.37556,-3.89324 -5.07812,-5.82812 -6.78418,-7.73162 -13.30313,-15.60608 -19.58301,-23.75147 -1.5788,-2.03504 -3.17606,-4.05459 -4.77637,-6.07275 -22.88222,-28.95328 -42.519482,-60.18471 -59.695312,-92.82422 -0.52207,-0.99209 -1.04414,-1.98419 -1.58203,-3.00635 -13.79339,-26.42473 -24.83147,-53.7881 -34.41797,-81.99365 -0.34337,-0.98968 -0.68675,-1.97936 -1.04053,-2.99902 C 14.334198,515.13352 6.2169385,477.94622 1.9584185,440.65706 c -0.28139,-2.22077 -0.28139,-2.22077 -1.30957003,-5.02344 -0.13354,-1.90813 -0.21048,-3.82042 -0.25635,-5.73267 -0.0286,-1.18704 -0.0572,-2.37408 -0.0866,-3.59709 -0.12824,-7.07756 -0.23221,-14.15415 -0.28204,-21.23274 -0.008,-1.12008 -0.008,-1.12008 -0.0165,-2.26279 -0.15956,-26.04019 2.23898003,-50.09029 9.64146003,-75.17471 0.4968895,-1.7277 0.9934595,-3.45548 1.4897495,-5.18335 2.5357,-8.73234 5.155,-17.31897 8.88525,-25.62915 0.38156,-0.86689 0.76313,-1.73379 1.15625,-2.62695 7.45557,-16.70098 16.66256,-31.53927 28.46875,-45.56055 0.69738,-0.83273 1.39477,-1.66547 2.11328,-2.52344 5.42307,-6.26109 11.34772,-11.41353 17.88672,-16.47656 0.89074,-0.72961 1.78148,-1.45922 2.69922,-2.21094 16.907939,-13.44141 37.277572,-21.66906 58.175812,-26.53904 0.79962,-0.18667 1.59924,-0.37335 2.42309,-0.56567 16.90327,-3.66647 33.67959,-5.24424 50.95191,-5.12183 z"
     fill="#000000"
     id="path1"
     style="fill:#ffffff" />
  <path
     d="m 206.76213,0.03598298 c 6.0017,1.24257072 11.31329,4.49408462 16.65381,7.40039062 2.23173,1.1966352 4.48493,2.3357066 6.75244,3.4628904 44.90209,22.533875 83.93455,58.153797 100.79688,106.472656 4.48669,13.62749 7.44627,27.53164 8.50292,41.84179 0.12461,1.66908 0.2642,3.33709 0.41602,5.00391 1.17802,13.24919 0.57296,25.94238 -1.04785,39.10352 -0.0887,0.72704 -0.17745,1.45408 -0.26886,2.20315 -1.70239,13.64827 -1.70239,13.64827 -3.91864,18.10935 -2.51546,1.24354 -4.15283,1.24054 -6.8418,0.47705 -2.34718,-0.88653 -4.62174,-1.88121 -6.9082,-2.91455 -1.34421,-0.59422 -1.34421,-0.59422 -2.71558,-1.20044 -3.19031,-1.42873 -6.36368,-2.8904 -9.53442,-4.36206 -0.61837,-0.28674 -1.23674,-0.57348 -1.87384,-0.8689 -33.32687,-15.48574 -65.14316,-32.78922 -92.12616,-58.1311 -0.53674,-0.50274 -1.07347,-1.00547 -1.62647,-1.52344 -21.98361,-20.76058 -39.41755,-47.50357 -40.57666,-78.597655 -0.48767,-26.594801 7.50427,-52.581232 25.20313,-72.8789057 0.48468,-0.5594532 0.96937,-1.1189063 1.46875,-1.6953126 2.33674,-1.99100235 4.67053,-2.01249186 7.64453,-1.90234372 z"
     fill="#000000"
     id="path2"
     style="fill:#ffffff" />
  <path
     d="m 1660.1415,380.48838 c 1.1029,-0.006 2.2057,-0.0128 3.3419,-0.0193 1.1915,-0.001 2.3831,-0.002 3.6108,-0.003 1.239,-0.003 2.478,-0.007 3.7546,-0.0101 2.6311,-0.005 5.2622,-0.008 7.8933,-0.007 3.9677,1.2e-4 7.9352,-0.0202 11.9029,-0.0393 28.9336,-0.0662 57.5403,0.97108 79.3476,22.47071 17.0255,17.65145 21.1102,38.77427 20.8711,62.51953 -0.1703,7.08716 -1.0679,13.44605 -3.2148,20.23437 -0.4931,1.61842 -0.4931,1.61842 -0.9961,3.26953 -5.9251,17.28305 -18.0059,30.20857 -33.5117,39.42969 -2.7766,2.07531 -2.7766,2.07531 -2.8999,5.23072 0.2137,5.47685 2.4785,10.44246 4.4389,15.49194 0.4233,1.11795 0.8466,2.2359 1.2827,3.38772 1.1474,3.025 2.3047,6.04597 3.4664,9.06549 1.2038,3.13623 2.3946,6.27739 3.5859,9.41837 1.4524,3.82756 2.9058,7.65477 4.3647,11.47989 4.5786,12.00715 9.0579,24.05043 13.5191,36.10165 1.2954,3.49794 2.5924,6.99527 3.8906,10.49219 0.4173,1.12875 0.4173,1.12875 0.843,2.28031 1.3755,3.73251 1.3755,3.73251 3.0164,7.3525 0.375,3.375 0.375,3.375 0,7 -2.4375,2.3125 -2.4375,2.3125 -5,4 -2.0451,4.09009 -1.1849,9.37991 -1.1875,13.875 -0.012,1.10215 -0.024,2.2043 -0.037,3.33985 -0,1.0609 -0,2.12179 -0.01,3.21484 -0,0.97179 -0.01,1.94359 -0.013,2.94483 0.2538,2.74391 0.6907,4.35708 2.2429,6.62548 2.9183,0.97278 4.9208,1.15022 7.9648,1.21094 0.9649,0.0284 1.9298,0.0567 2.9239,0.0859 2.0284,0.052 4.0571,0.0963 6.0859,0.13281 0.9662,0.0309 1.9323,0.0619 2.9277,0.0937 0.8817,0.0198 1.7633,0.0396 2.6717,0.0601 2.8994,0.49777 4.3051,1.40238 6.426,3.4165 0.5,2.5 0.5,2.5 0,5 -3.0151,2.89031 -5.2031,3.38149 -9.3164,3.44141 -1.0113,0.0264 -2.0226,0.0528 -3.0645,0.0801 -1.5749,0.0203 -1.5749,0.0203 -3.1816,0.041 -2.0848,0.0344 -4.1695,0.077 -6.2539,0.12891 -0.9224,0.0123 -1.8448,0.0246 -2.7952,0.0373 -2.6522,0.11682 -2.6522,0.11682 -5.3884,2.27124 -1.2563,3.76882 -1.1475,7.28968 -1.1453,11.21582 -0,0.83776 -0.01,1.67551 -0.01,2.53865 -0.01,2.77457 -0.011,5.54908 -0.012,8.32366 -0,1.9295 -0.01,3.85901 -0.01,5.78851 -0.01,4.04853 -0.01,8.09704 -0.01,12.14557 10e-5,5.17944 -0.014,10.35873 -0.031,15.53814 -0.011,3.9875 -0.013,7.97497 -0.013,11.96249 -10e-4,1.90891 -0.01,3.81781 -0.013,5.7267 -0.01,2.67579 -0.01,5.35128 -9e-4,8.02707 -0.01,0.78363 -0.011,1.56726 -0.017,2.37464 0.027,4.81797 0.7345,8.78288 2.26,13.35875 1.2645,0.29004 1.2645,0.29004 2.5547,0.58594 1.6435,0.39059 1.6435,0.39059 3.3203,0.78906 1.0905,0.25524 2.1811,0.51047 3.3047,0.77344 2.8203,0.85156 2.8203,0.85156 4.8203,2.85156 0.375,2.4375 0.375,2.4375 0,5 -2.8402,2.68592 -4.8719,3.43133 -8.75,3.4375 -6.4875,-0.2105 -11.1056,-2.23665 -15.625,-6.875 -3.8454,-6.06391 -4.7492,-12.12454 -4.752,-19.23037 -0,-1.10473 -0.01,-2.20945 -0.01,-3.34764 0,-1.79564 0,-1.79564 0.01,-3.62755 -0,-1.90826 -0,-1.90826 -0.01,-3.85506 -0,-3.47708 -0,-6.95414 4e-4,-10.43122 0,-3.64297 10e-5,-7.28594 -10e-4,-10.9289 -0,-6.11464 5e-4,-12.22927 0,-18.3439 0.01,-7.06758 0,-14.13513 -0,-21.2027 -0,-6.07317 -0,-12.14633 -0,-18.21951 0,-3.62515 0,-7.2503 -0,-10.87545 -0,-4.03866 10e-4,-8.07726 0.01,-12.11592 -0,-1.20114 -0,-2.40228 -0.01,-3.63982 0,-1.09908 0.01,-2.19816 0.01,-3.33055 5e-4,-1.43183 5e-4,-1.43183 10e-4,-2.8926 0.1166,-2.33718 0.5134,-4.27493 1.1258,-6.52131 1.1443,-12.58749 -5.4331,-25.14679 -9.832,-36.73047 -0.5608,-1.48517 -1.1212,-2.97047 -1.6813,-4.45588 -1.4651,-3.88231 -2.935,-7.76276 -4.4059,-11.64287 -1.4763,-3.89745 -2.9471,-7.79694 -4.4187,-11.69617 -2.4915,-6.60061 -4.9955,-13.19639 -7.5071,-19.78942 -1.4888,-3.91383 -2.9538,-7.83552 -4.3986,-11.76575 -0.3181,-0.85258 -0.6361,-1.70516 -0.9638,-2.58358 -0.5513,-1.47815 -1.0936,-2.95969 -1.6238,-4.44552 -1.399,-3.70896 -2.5338,-6.12465 -6.1688,-7.89034 -2.9634,-0.40389 -2.9634,-0.40389 -6.4062,-0.24609 -0.6781,0.0119 -1.3562,0.0238 -2.0548,0.036 -2.5138,0.0515 -5.026,0.13039 -7.539,0.21006 -2.2044,0.0611 -4.4088,0.12216 -6.6133,0.18311 -6.3123,0.18319 -12.6234,0.39488 -18.9345,0.61645 -3.9709,0.1386 -7.942,0.27034 -11.9131,0.40162 -2.5443,0.0875 -5.0886,0.17535 -7.6328,0.26367 -1.1772,0.0386 -2.3544,0.0772 -3.5673,0.11693 -8.7107,0.29254 -8.7107,0.29254 -17.339,1.41822 -1.7165,3.43308 -1.144,7.38143 -1.1418,11.15967 -0,0.94972 -0.01,1.89944 -0.011,2.87793 -0.01,2.06693 -0.013,4.13387 -0.016,6.2008 -0.01,3.26941 -0.023,6.53866 -0.041,9.80802 -0.053,9.29717 -0.1005,18.59426 -0.1159,27.89157 -0.01,5.68236 -0.039,11.36434 -0.081,17.04655 -0.012,2.16813 -0.017,4.33631 -0.015,6.50447 0,3.03126 -0.02,6.06143 -0.048,9.09254 0.01,0.89885 0.013,1.79769 0.02,2.72378 -0.091,6.07093 -0.091,6.07093 -2.4286,9.25012 -2.5757,1.7539 -4.0847,1.98195 -7.1839,1.94455 -0.8572,0.0103 -1.7144,0.0206 -2.5976,0.0312 -2.3399,-0.53125 -2.3399,-0.53125 -3.9623,-1.97862 -2.1006,-3.89234 -1.7909,-7.56861 -1.7585,-11.92583 -0,-0.96008 -0.01,-1.92016 -0.014,-2.90933 -0.012,-3.22579 -0,-6.45115 0.01,-9.67694 -0,-2.30946 -0.01,-4.61892 -0.016,-6.92837 -0.014,-6.28128 -0.01,-12.56241 0,-18.84368 0.01,-6.57236 5e-4,-13.1447 -0,-19.71705 -0.01,-11.75266 0,-23.50524 0.019,-35.25789 0.013,-10.64296 0.011,-21.28583 -0,-31.92879 -0.016,-12.36494 -0.022,-24.72982 -0.013,-37.09477 0,-6.54292 0.01,-13.08578 -0,-19.6287 -0.01,-6.15761 -0,-12.31504 0.015,-18.47263 0,-2.25661 0,-4.51323 -0,-6.76983 -0.01,-3.08811 0,-6.17564 0.017,-9.26372 -0.01,-0.8864 -0.013,-1.77281 -0.02,-2.68608 0.085,-9.15808 2.267,-17.29202 8.1669,-24.40214 6.5547,-6.00374 14.9404,-9.15734 23.7278,-9.19197 z m -10.4926,20.14526 c -3.2188,4.48336 -4.1209,8.31015 -4.1405,13.75075 -0.01,0.95196 -0.011,1.90393 -0.017,2.88474 -0,1.03754 -0,2.07507 -0,3.14405 -0,1.09792 -0.01,2.19584 -0.015,3.32703 -0.015,3.63245 -0.021,7.26486 -0.027,10.89734 -0.01,2.52058 -0.012,5.04117 -0.017,7.56175 -0.01,4.60823 -0.015,9.21645 -0.018,13.82468 -0,6.78393 -0.022,13.56766 -0.051,20.35152 -0.024,5.87757 -0.032,11.75508 -0.034,17.6327 -0,2.50114 -0.011,5.00227 -0.024,7.50338 -0.017,3.49079 -0.015,6.9811 -0.01,10.47192 -0.01,1.03956 -0.018,2.07912 -0.028,3.15019 0.01,0.94914 0.011,1.89828 0.017,2.87619 -0,0.82534 -0,1.65068 -0,2.50103 0.4623,2.63854 1.2571,3.52284 3.3719,5.12273 2.5532,0.44852 2.5532,0.44852 5.4922,0.36328 1.1585,8.9e-4 2.3169,0.002 3.5105,0.003 1.2779,-0.0176 2.5557,-0.0353 3.8723,-0.0535 1.3487,-0.0108 2.6974,-0.0215 4.0462,-0.032 11.5961,-0.12476 23.1897,-0.51693 34.7769,-0.97525 1.9765,-0.0779 3.9532,-0.15228 5.93,-0.22308 18.9442,-0.69861 34.6307,-2.88243 48.9539,-16.47698 12.8455,-13.84164 18.9998,-30.59631 18.6055,-49.47265 -1.2014,-20.07336 -7.1134,-36.27549 -22.1602,-49.92188 -18.6635,-14.94612 -44.9135,-13.39841 -67.5329,-13.39624 -2.5862,-0.002 -5.172,-0.0206 -7.7581,-0.0393 -1.6738,-0.003 -3.3477,-0.005 -5.0215,-0.006 -0.7584,-0.007 -1.5169,-0.0144 -2.2983,-0.0218 -6.8922,0.0292 -13.8047,0.92312 -19.4165,5.25224 z"
     fill="#000000"
     id="path3"
     style="fill:#ffffff" />
  <path
     d="m 832.64885,396.63364 c 0.67418,0.56976 1.34836,1.13953 2.04297,1.72656 11.28871,10.26247 18.1485,26.1961 19.08178,41.29126 0.64561,17.391 -1.62967,33.40661 -13.18725,47.16968 -6.20961,6.53588 -13.71595,11.11031 -21.26953,15.94531 -2.73058,1.59543 -2.73058,1.59543 -3.66797,3.86719 0.66902,0.26684 1.33805,0.53367 2.02734,0.80859 1.47147,0.58975 1.47147,0.58975 2.97266,1.19141 1.17691,0.46535 2.35383,0.9307 3.5664,1.41016 17.09144,6.96903 30.0902,17.00995 37.96094,34.08593 7.25515,17.26226 8.47162,39.88865 1.69043,57.54004 -3.92366,9.32901 -8.86518,16.92583 -16.21777,23.96387 -0.5891,0.62004 -1.1782,1.24008 -1.78516,1.87891 -10.37027,10.18794 -26.23351,15.6696 -40.33984,17.74609 -0.83201,0.1248 -1.66402,0.24959 -2.52124,0.37817 -20.96168,3.03015 -42.24058,2.26922 -63.35376,1.62183 -1.72513,-0.0462 -1.72513,-0.0462 -3.48511,-0.0933 -10.78013,-0.38121 -20.19737,-1.10648 -28.51489,-8.5317 -10.22035,-11.47001 -9.43666,-25.78705 -9.38818,-40.19629 -0.004,-2.03637 -0.009,-4.07275 -0.0159,-6.10911 -0.0136,-5.50644 -0.008,-11.0127 10e-4,-16.51914 0.008,-5.78121 5.5e-4,-11.5624 -0.004,-17.34361 -0.005,-9.71074 0.002,-19.42141 0.016,-29.13214 0.0163,-11.19657 0.0111,-22.39298 -0.005,-33.58954 -0.0137,-9.63946 -0.0155,-19.27887 -0.008,-28.91833 0.005,-5.74541 0.005,-11.49075 -0.005,-17.23616 -0.009,-5.40754 -0.003,-10.81487 0.0147,-16.22239 0.004,-1.97393 0.003,-3.94787 -0.004,-5.92179 -0.0984,-32.11332 -0.0984,-32.11332 9.87846,-42.32713 5.39903,-4.82998 10.8152,-5.85365 17.83203,-6.54687 0.79833,-0.0823 1.59667,-0.16468 2.41919,-0.24951 34.51086,-3.45413 76.46053,-6.41836 104.2687,18.31201 z m -114,3 c -2.5043,4.62068 -2.46458,9.37546 -2.64453,14.51172 -0.0383,0.98764 -0.0765,1.97528 -0.11592,2.99284 -0.45979,14.14735 -0.21172,28.30519 0.002,42.45516 0.0617,4.09856 0.1081,8.19715 0.15083,12.29595 0.0352,3.18185 0.0794,6.36353 0.12635,9.54524 0.021,1.51387 0.0389,3.02778 0.0537,4.54172 0.0215,2.09284 0.0553,4.18512 0.0925,6.27773 0.0163,1.18749 0.0327,2.37499 0.0495,3.59847 0.004,2.92063 0.004,2.92063 2.2852,4.78117 2.71882,0.25985 5.34176,0.39805 8.06641,0.44922 0.81774,0.0223 1.63548,0.0446 2.47801,0.0675 2.67256,0.0685 5.3451,0.12093 8.01808,0.17076 0.9071,0.0193 1.81419,0.0386 2.74878,0.0585 44.42509,1.91683 44.42509,1.91683 82.72778,-17.62097 9.12204,-9.64407 13.71035,-22.54662 14.05506,-35.70314 -0.72265,-16.40407 -7.40612,-30.88562 -19.35547,-42.16406 -13.27035,-10.94188 -27.07942,-13.4089 -43.73438,-13.42578 -1.14751,-0.003 -2.29502,-0.007 -3.47731,-0.0101 -2.41975,-0.005 -4.8395,-0.007 -7.25926,-0.007 -3.68884,-0.002 -7.37737,-0.0204 -11.06616,-0.0393 -2.35742,-0.003 -4.71484,-0.005 -7.07227,-0.006 -1.64409,-0.0108 -1.64409,-0.0108 -3.32139,-0.0218 -9.03571,0.0268 -16.2466,0.53512 -22.80751,7.25225 z m -1,118 c -1.49007,2.98015 -1.17425,5.71294 -1.22119,9.03809 -0.0115,0.72573 -0.023,1.45146 -0.0349,2.19918 -0.0369,2.41566 -0.0664,4.83134 -0.0955,7.2471 -0.0231,1.69323 -0.0465,3.38644 -0.0702,5.07966 -0.0486,3.56781 -0.0935,7.13565 -0.1359,10.70355 -0.0434,3.61923 -0.0918,7.23833 -0.14551,10.85742 -0.41445,24.01002 -0.41445,24.01002 -0.008,48.01562 0.0239,0.84464 0.0478,1.68928 0.0724,2.55951 0.28712,5.85088 1.64413,10.12411 5.70108,14.54987 9.06613,5.4011 20.80043,4.02581 31,3.9375 1.7054,-0.01 3.41081,-0.019 5.11621,-0.0283 4.18483,-0.0279 8.36922,-0.0735 12.55377,-0.12921 2.06228,-0.0273 4.12461,-0.0501 6.18695,-0.0725 16.14083,-0.21848 33.69073,-0.68901 48.08079,-8.95749 0.7425,-0.41895 1.485,-0.83789 2.25,-1.26953 11.13642,-6.82858 17.77221,-16.68944 21.5625,-29.04297 3.54381,-15.80457 2.41665,-33.89581 -5.625,-48.125 -1.02791,-1.54442 -2.0897,-3.06695 -3.1875,-4.5625 -0.51305,-0.70641 -1.0261,-1.41281 -1.55469,-2.14063 -10.14202,-12.71392 -25.58531,-17.69123 -41.17258,-19.45086 -6.51763,-0.66202 -13.04271,-0.8724 -19.58914,-1.04132 -1.39528,-0.0413 -2.79053,-0.0833 -4.18577,-0.12595 -3.61863,-0.10866 -7.23746,-0.20816 -10.8564,-0.30569 -2.95407,-0.0812 -5.90793,-0.16885 -8.86181,-0.25687 -6.12108,-0.18232 -12.24232,-0.35956 -18.36384,-0.52682 -1.07315,-0.0295 -2.1463,-0.059 -3.25197,-0.0894 -7.43551,-0.56322 -7.43551,-0.56322 -14.1638,1.93753 z"
     fill="#000000"
     id="path4"
     style="fill:#ffffff" />
  <path
     d="m 2024.6488,384.63364 c 7.0945,6.12209 10.8915,14.84412 15,23.0625 0.7445,1.46932 1.4897,2.9383 2.2354,4.40698 10.3806,20.51104 20.2958,41.23902 29.9219,62.11377 3.8579,8.35005 7.8244,16.64319 11.8427,24.91675 5.1745,10.65453 10.2129,21.3661 15.1758,32.12109 3.6982,7.99769 7.4839,15.94864 11.3242,23.87891 4.4097,9.11135 8.7433,18.25371 13,27.4375 0.5312,1.14219 1.0624,2.28438 1.6097,3.46118 2.5366,5.46685 5.0511,10.94187 7.5068,16.44554 1.1534,2.58085 2.3182,5.1565 3.4841,7.73174 0.815,1.81269 1.6133,3.63281 2.4112,5.45309 2.7362,6.03355 4.8823,10.30327 10.4882,13.97095 4.6942,-5.51054 4.1464,-11.49323 4.1381,-18.38197 0,-0.94884 0.01,-1.89767 0.01,-2.87526 0.01,-3.18127 0.01,-6.36251 0.011,-9.5438 0.01,-2.27993 0.01,-4.55986 0.015,-6.83979 0.011,-4.91034 0.02,-9.82068 0.026,-14.73102 0.011,-7.76007 0.031,-15.52009 0.053,-23.28012 0.01,-2.65575 0.015,-5.3115 0.022,-7.96726 0,-0.99544 0,-0.99544 0.01,-2.011 0.021,-7.54944 0.04,-15.09889 0.058,-22.64834 0,-0.68995 0,-1.3799 0,-2.09075 0.026,-11.19053 0.045,-22.38106 0.062,-33.57161 0.017,-11.49019 0.046,-22.9803 0.085,-34.47043 0.021,-6.45105 0.036,-12.90201 0.039,-19.3531 0,-6.06324 0.018,-12.12628 0.044,-18.18945 0.01,-2.22848 0.01,-4.45699 0.01,-6.68547 -0,-3.03545 0.01,-6.07027 0.03,-9.10564 -0.01,-0.88764 -0.011,-1.77528 -0.017,-2.68981 0.065,-5.93732 0.065,-5.93732 1.8029,-9.10822 2.0658,-1.87427 3.2123,-2.02419 5.9808,-2.01946 1.1254,-0.0329 1.1254,-0.0329 2.2735,-0.0664 3.6536,0.97734 5.0298,2.6603 7.3507,5.62891 0.7289,3.18967 0.6623,6.309 0.6148,9.56938 0.01,0.9691 0.011,1.93821 0.017,2.93667 0.013,3.25062 -0.01,6.49999 -0.033,9.75054 0,2.32931 0.01,4.65863 0.012,6.98793 0.01,6.33092 -0.011,12.6614 -0.039,18.99226 -0.021,5.95419 -0.021,11.90836 -0.021,17.86258 -10e-4,11.80445 -0.026,23.60872 -0.065,35.41309 -0.037,11.4411 -0.059,22.88208 -0.061,34.32324 -2e-4,0.70394 -4e-4,1.40788 -6e-4,2.13315 -2e-4,0.70274 -3e-4,1.40549 -5e-4,2.12953 -4e-4,1.41511 -8e-4,2.83022 -10e-4,4.24534 -3e-4,1.04695 -3e-4,1.04695 -6e-4,2.11506 -0,11.57717 -0.025,23.15431 -0.045,34.73145 -0.01,3.94289 -0.01,7.88578 -0.013,11.82868 -0.01,6.20603 -0.022,12.41196 -0.047,18.61795 -0.01,2.27434 -0.012,4.54869 -0.012,6.82304 -0,3.11205 -0.015,6.22381 -0.032,9.33581 0,0.89351 0.01,1.78701 0.01,2.7076 -0.068,8.20236 -0.4683,17.24754 -6.2815,23.4967 -6.9306,4.94856 -13.6275,6.06934 -22,5 -7.6216,-2.30089 -12.3849,-9.5537 -16.0703,-16.26563 -1.0316,-1.98791 -2.0491,-3.98314 -3.0547,-5.98437 -0.5556,-1.087 -1.1113,-2.174 -1.6838,-3.29395 -5.2187,-10.30718 -10.0597,-20.78383 -14.8744,-31.28418 -3.343,-7.27159 -6.8173,-14.4747 -10.3165,-21.67187 -5.1756,-10.65394 -10.2128,-21.36613 -15.1757,-32.12109 -3.6982,-7.99768 -7.4836,-15.94875 -11.3243,-23.87891 -4.9838,-10.29104 -9.8319,-20.63844 -14.625,-31.01953 -4.2342,-9.15036 -8.5905,-18.23723 -12.989,-27.30957 -3.7058,-7.66348 -7.3049,-15.37006 -10.8616,-23.10333 -5.6036,-12.1882 -5.6036,-12.1882 -11.5869,-24.19257 -0.5787,-1.11633 -1.1575,-2.23266 -1.7539,-3.38281 -1.7321,-2.56409 -2.8047,-3.47168 -5.6836,-4.49219 -2.6624,2.54724 -3.2295,4.61258 -3.3791,8.16392 -0.017,1.74756 -0.018,3.49532 -0.01,5.24292 -0.01,0.96361 -0.011,1.92722 -0.016,2.92003 -0.014,3.23744 -0.01,6.47449 5e-4,9.71195 -0.01,2.31757 -0.013,4.63514 -0.021,6.95271 -0.015,4.99496 -0.021,9.98982 -0.02,14.9848 0,7.89472 -0.017,15.78929 -0.04,23.68396 -0.03,11.06563 -0.05,22.13123 -0.062,33.19689 -7e-4,0.70221 -0,1.40442 -0,2.12791 -0,2.84525 -0.01,5.6905 -0.01,8.53575 -0.01,7.83054 -0.019,15.66108 -0.031,23.49161 -0,0.70105 -0,1.40211 -0,2.1244 -0.018,11.68789 -0.044,23.37575 -0.075,35.06361 -0.02,7.85138 -0.029,15.70269 -0.031,23.5541 -0,4.8808 -0.014,9.76155 -0.026,14.64233 -0,2.26677 -0.01,4.53355 -0,6.80032 0,3.08975 -0.01,6.17924 -0.017,9.26896 0,0.90097 0.01,1.80194 0.012,2.73022 -0.054,7.96408 -0.054,7.96408 -2.2705,11.80361 -3.6053,2.40356 -6.7936,2.75085 -11,2 -2.0958,-0.91745 -2.0958,-0.91745 -4,-3 -0.6282,-3.21546 -0.5343,-6.41723 -0.5012,-9.68401 -0.01,-1.00555 -0.011,-2.01111 -0.017,-3.04714 -0.014,-3.38568 0,-6.77063 0.016,-10.1563 -0,-2.42093 -0.01,-4.84186 -0.016,-7.26279 -0.013,-5.90391 -0.01,-11.80763 0.01,-17.71151 0.017,-6.87691 0.014,-13.75376 0.01,-20.63068 -0.01,-12.27478 0.01,-24.54946 0.033,-36.82422 0.024,-11.90499 0.031,-23.80984 0.021,-35.71484 -0.011,-12.96225 -0.013,-25.92443 0,-38.88667 0,-1.38356 0,-2.76712 0,-4.15068 8e-4,-0.68073 0,-1.36145 0,-2.0628 0,-4.79029 0,-9.58054 -0,-14.37082 -0.01,-6.45553 0.01,-12.91091 0.027,-19.3664 0.01,-2.36871 0.01,-4.73744 10e-4,-7.10614 -0.01,-3.23557 0.01,-6.47056 0.024,-9.70608 -0.01,-0.93571 -0.012,-1.87143 -0.018,-2.8355 0.062,-6.46602 0.9052,-12.20402 4.9489,-17.50686 8.2414,-6.7732 18.9208,-8.30986 28.457,-2.97656 z"
     fill="#000000"
     id="path5"
     style="fill:#ffffff" />
  <path
     d="m 2310.7064,379.55551 c 18.9324,-0.64042 37.1338,1.48235 54.9424,8.07812 1.1666,0.43055 2.3332,0.8611 3.5352,1.30469 13.7229,5.4768 25.5395,13.18157 36.1094,23.44531 2.3382,2.36394 2.3382,2.36394 5.3554,4.25 0.5,2.3125 0.5,2.3125 0,5 -2.375,2.8125 -2.375,2.8125 -5,5 -0.66,0 -1.32,0 -2,0 0,0.66 0,1.32 0,2 -2.3125,0.625 -2.3125,0.625 -5,1 -0.99,-0.66 -1.98,-1.32 -3,-2 0,-0.66 0,-1.32 0,-2 -0.5891,-0.26554 -1.1782,-0.53109 -1.7851,-0.80468 -2.273,-1.22668 -3.7928,-2.53944 -5.6524,-4.32032 -23.5199,-20.87776 -54.2444,-25.39297 -84.5625,-23.875 -28.1567,2.86221 -54.7004,17.65052 -73,39 -20.9096,26.60595 -28.969,63.79382 -25.101,96.97486 4.3119,31.62196 18.8449,61.13479 44.2026,80.97046 25.1593,17.8353 55.9037,24.39215 86.4414,20.59375 17.8194,-3.24685 35.9152,-11.14916 49.6016,-23.07032 1.8554,-1.46875 1.8554,-1.46875 3.8554,-1.46875 0.6878,-1.32258 1.3471,-2.65986 2,-4 0.5113,-0.94955 1.0226,-1.89911 1.5493,-2.87744 2.2478,-5.30953 1.8794,-10.84662 1.8492,-16.52099 0,-1.18954 0.01,-2.37907 0.01,-3.60465 0,-2.50972 -0,-5.01945 -0.016,-7.52914 -0.016,-3.82296 -1e-4,-7.64485 0.019,-11.46778 -0,-2.44531 -0.01,-4.89062 -0.012,-7.33593 0.01,-1.70197 0.01,-1.70197 0.018,-3.43833 -0.066,-7.57651 -0.3341,-15.06387 -5.8544,-20.72574 -3.5928,-2.10311 -6.6109,-2.62403 -10.737,-2.6313 -1.2365,-0.006 -1.2365,-0.006 -2.4979,-0.0121 -0.8957,5.3e-4 -1.7914,10e-4 -2.7143,0.002 -0.95,-0.003 -1.9,-0.007 -2.8788,-0.0105 -2.0614,-0.007 -4.1229,-0.0127 -6.1843,-0.0163 -3.2612,-0.007 -6.5222,-0.0228 -9.7833,-0.0413 -9.2716,-0.0525 -18.543,-0.10048 -27.8147,-0.11592 -5.6717,-0.0101 -11.343,-0.0393 -17.0146,-0.0813 -2.1625,-0.0123 -4.3251,-0.0174 -6.4877,-0.0152 -3.0215,0.002 -6.0418,-0.0198 -9.0632,-0.0475 -0.8957,0.007 -1.7914,0.0132 -2.7142,0.02 -6.0572,-0.0916 -6.0572,-0.0916 -9.2303,-2.45596 -2.4249,-3.521 -1.8425,-5.89059 -1.4422,-10.09408 2,-3 2,-3 5,-4 2.9289,-0.10193 5.8341,-0.14682 8.7632,-0.14526 1.3446,-0.005 1.3446,-0.005 2.7164,-0.0102 2.9729,-0.01 5.9459,-0.0115 8.9189,-0.0125 2.072,-0.003 4.1441,-0.007 6.2162,-0.0101 4.3529,-0.006 8.7058,-0.008 13.0587,-0.007 5.5487,10e-5 11.0974,-0.0135 16.6461,-0.0308 4.2863,-0.0112 8.5725,-0.0131 12.8588,-0.0126 2.0435,-10e-4 4.087,-0.006 6.1305,-0.0133 31.8745,-0.1099 31.8745,-0.1099 42.6912,8.24202 6.9987,7.85591 8.2992,15.7189 8.2588,25.9148 0.01,1.63269 0.01,1.63269 0.011,3.29836 0.01,3.58917 0,7.17814 -0,10.76731 10e-4,2.49531 0,4.99062 0.01,7.48592 0,5.89301 -0,11.78595 -0.014,17.67895 -0.01,5.37083 -0,10.74156 0.01,16.11238 0.01,5.81565 0.01,11.63125 0,17.4469 -10e-4,2.47321 3e-4,4.94643 0.01,7.41964 0.01,3.44981 -0,6.89935 -0.014,10.34913 0,1.02707 0.01,2.05414 0.012,3.11234 -0.01,0.93784 -0.011,1.87568 -0.017,2.84193 -0,1.22306 -0,1.22306 -0,2.47082 -0.2517,2.10152 -0.2517,2.10152 -2.2517,5.10152 -2.4961,0.4336 -2.4961,0.4336 -5.4375,0.4375 -1.4521,0.029 -1.4521,0.029 -2.9336,0.0586 -2.6289,-0.4961 -2.6289,-0.4961 -4.4101,-2.10938 -1.54,-3.01572 -1.8909,-5.65354 -2.2813,-9.01172 -0.3432,-4.71476 -0.3432,-4.71476 -2.9375,-8.375 -0.9925,0.5079 -1.9851,1.01579 -3.0078,1.53907 -36.2415,18.431 -74.9095,25.80282 -114.6716,13.71118 -30.8606,-10.17241 -56.0285,-31.36962 -70.969,-60.25415 -18.7569,-37.60822 -22.9911,-77.92922 -10.0078,-118.17969 5.9907,-17.79905 14.8873,-34.93455 27.6562,-48.81641 0.4781,-0.52045 0.9562,-1.04091 1.4488,-1.57714 21.6699,-23.31849 51.784,-36.35014 83.5592,-38.32991 1.6835,-0.0527 3.3668,-0.10797 5.0498,-0.17187 z"
     fill="#000000"
     id="path6"
     style="fill:#ffffff" />
  <path
     d="m 1574.1988,410.53354 c 18.6593,16.71165 29.3737,37.84335 34.45,62.1001 0.2477,1.15459 0.2477,1.15459 0.5005,2.33252 5.5937,27.57537 4.6322,59.29782 -1.5005,86.66748 -0.1713,0.79648 -0.3426,1.59296 -0.519,2.41357 -6.8745,30.70049 -28.0423,54.08271 -53.8169,70.74268 -27.9231,16.92307 -64.779,21.8781 -96.668,14.86719 -1.3345,-0.33157 -2.6665,-0.67289 -3.9961,-1.02344 -0.7062,-0.18273 -1.4125,-0.36545 -2.1401,-0.55371 -28.8668,-7.80461 -55.2848,-25.65368 -70.8599,-51.44629 -11.7625,-20.74964 -15.0475,-43.51628 -17.1875,-66.9375 -0.084,-0.91032 -0.1681,-1.82064 -0.2546,-2.75855 -1.0132,-12.142 -0.5363,-23.80075 1.1296,-35.86645 0.089,-0.65092 0.1779,-1.30184 0.2696,-1.97248 4.4844,-32.47093 15.4088,-62.75077 42.0077,-83.81268 16.8473,-12.14087 35.8455,-19.25799 56.0352,-23.65234 1.572,-0.34225 1.572,-0.34225 3.1758,-0.69141 38.6488,-6.88266 79.7165,3.84455 109.3742,29.59131 z m -168.6164,17.75635 c -15.5628,18.86399 -21.634,41.5988 -24.9336,65.34375 -0.1328,0.92039 -0.2656,1.84078 -0.4023,2.78906 -0.294,2.40767 -0.4747,4.78846 -0.5977,7.21094 -0.053,1.02351 -0.1057,2.04703 -0.1602,3.10156 -0.857,34.80501 4.314,71.34057 28.8291,97.6062 17.8549,18.39052 45.2013,30.73477 70.8623,31.62818 31.0354,0.40472 61.1044,-6.66304 84.4688,-28.33594 13.8361,-13.50621 22.2107,-29.73751 26.75,-48.375 0.1988,-0.81276 0.3975,-1.62551 0.6023,-2.46289 3.1639,-13.87632 4.0273,-27.67587 3.9602,-41.84961 -0,-1.17531 -0,-1.17531 -0,-2.37436 -0.043,-12.51653 -0.7193,-24.65753 -3.308,-36.93814 -0.1286,-0.66081 -0.2572,-1.32161 -0.3896,-2.00244 -4.8632,-24.37121 -19.1186,-45.58167 -39.6055,-59.53467 -19.0916,-12.51525 -39.6576,-18.86993 -62.5049,-18.83789 -0.6575,5.4e-4 -1.315,0.001 -1.9925,0.002 -29.7787,0.11281 -60.6541,11.10943 -81.5739,33.0296 z"
     fill="#000000"
     id="path7"
     style="fill:#ffffff" />
  <path
     d="m 1944.2738,397.82114 c 19.5094,16.70642 28.2894,41.85273 30.5667,66.92197 0.148,2.12263 0.2704,4.24464 0.3784,6.36967 0.062,1.16638 0.062,1.16638 0.1242,2.35632 0.3947,8.04211 0.4469,16.0732 0.4351,24.12328 0,1.60368 0,3.20736 0.01,4.81104 0,4.29032 0,8.58063 -3e-4,12.87096 -0,4.51087 -2e-4,9.02174 0,13.53262 0,7.55362 -6e-4,15.10724 -0.01,22.66087 -0.01,8.73219 -0,17.46436 0,26.19655 0,7.52222 0.01,15.04443 0,22.56665 -0,4.48288 -0,8.96574 0,13.44862 0,4.20017 9e-4,8.40031 -0,12.60047 -0,1.54197 -10e-4,3.08395 0,4.62592 0,2.09997 -7e-4,4.19985 -0.01,6.29981 -6e-4,1.76381 -6e-4,1.76381 -0,3.56325 -0.1259,2.8645 -0.1259,2.8645 -1.1259,5.8645 -2.5581,1.27908 -4.5185,1.23975 -7.375,1.3125 -0.9565,0.0374 -1.9129,0.0748 -2.8984,0.11328 -3.5293,-0.55114 -4.4985,-1.68179 -6.7266,-4.42578 -0.4994,-2.38913 -0.4994,-2.38913 -0.4988,-5.09242 -0.01,-1.02769 -0.019,-2.05538 -0.029,-3.11421 0.01,-1.1217 0.019,-2.2434 0.029,-3.39908 -0.01,-1.77855 -0.01,-1.77855 -0.017,-3.59304 -0.012,-3.24799 -0.01,-6.49541 0.01,-9.74338 0.01,-3.39927 -0.01,-6.7984 -0.024,-10.19763 -0.031,-7.9059 -0.032,-15.81167 -0.03,-23.71762 0,-10.06706 -0.01,-20.13403 -0.049,-30.20102 -0.012,-3.38433 -0.018,-6.76842 -0.01,-10.15277 0.01,-3.77098 8e-4,-7.54155 -0.011,-11.31251 0.01,-1.12372 0.015,-2.24744 0.023,-3.40521 -0.01,-1.02487 -0.013,-2.04974 -0.02,-3.10567 6e-4,-0.89171 0,-1.78342 0,-2.70215 -0.2201,-2.2979 -0.2201,-2.2979 -1.5623,-4.05024 -2.4802,-1.66104 -4.1863,-1.58779 -7.1631,-1.58727 -1.1104,-0.007 -2.2209,-0.014 -3.365,-0.0213 -1.2188,0.008 -2.4376,0.0153 -3.6933,0.0232 -1.2831,-0.004 -2.5662,-0.007 -3.8882,-0.0111 -3.5206,-0.009 -7.041,2e-5 -10.5617,0.0133 -3.6821,0.0113 -7.3643,0.007 -11.0465,0.005 -6.1838,-8.9e-4 -12.3676,0.0102 -18.5515,0.0286 -7.1522,0.0212 -14.3042,0.0247 -21.4564,0.0184 -6.8766,-0.006 -13.7531,-5e-5 -20.6297,0.0112 -2.9282,0.005 -5.8563,0.006 -8.7845,0.003 -4.0872,-0.002 -8.1741,0.0122 -12.2612,0.0285 -1.2188,-0.002 -2.4376,-0.005 -3.6933,-0.008 -1.1105,0.007 -2.221,0.0142 -3.3651,0.0215 -0.9667,0.002 -1.9335,0.004 -2.9295,0.006 -2.6821,0.0921 -2.6821,0.0921 -5.4223,2.25448 -0.454,2.20225 -0.454,2.20225 -0.3785,4.80049 -0.01,1.01364 -0.016,2.02727 -0.025,3.07163 0.01,1.11639 0.012,2.23278 0.019,3.38301 -0.01,1.17244 -0.011,2.34488 -0.016,3.55285 -0.012,3.22129 -0.012,6.44228 -0.01,9.66357 0,3.37031 -0.016,6.74051 -0.032,10.11077 -0.038,8.57671 -0.051,17.1534 -0.061,25.73018 -0.011,9.24854 -0.026,18.49696 -0.071,27.74541 -0.015,3.35535 -0.024,6.71048 -0.019,10.06586 0.01,3.74447 -0.01,7.4885 -0.026,11.23292 0.01,1.11032 0.012,2.22064 0.019,3.36461 -0.077,9.60981 -0.077,9.60981 -3.4034,13.2787 -3.5647,1.18824 -6.2558,1.26275 -10,1 -2.1762,-1.20526 -2.1762,-1.20526 -4,-3 -0.6059,-2.23077 -0.6059,-2.23077 -0.7439,-4.96582 -0.055,-1.07592 -0.1105,-2.15185 -0.1675,-3.26038 -0.1826,-7.7748 -0.2093,-15.54401 -0.1863,-23.32068 0,-1.86614 0,-3.73229 0,-5.59844 0,-4.87264 0.014,-9.74524 0.025,-14.61786 0.01,-4.98779 0.015,-9.97559 0.02,-14.96338 0.011,-9.75783 0.028,-19.51563 0.049,-29.27344 0.66,0 1.32,0 2,0 -0.071,-0.62439 -0.1413,-1.24878 -0.214,-1.89209 -0.8166,-7.92333 -0.9311,-15.77239 -0.9188,-23.73291 -7e-4,-1.39608 -0,-2.79216 -0,-4.18823 -10e-4,-2.91465 7e-4,-5.82926 0.01,-8.7439 0.01,-3.67649 0,-7.35291 -0,-11.0294 -0.086,-64.31851 -0.086,-64.31851 18.1338,-88.41347 0.4461,-0.62906 0.8921,-1.25813 1.3516,-1.90625 11.5791,-15.06 31.1855,-24.71052 49.3086,-28.67578 26.0049,-3.25297 53.966,1.45458 74.9649,17.77097 z m -107.9648,17.64844 c -16.8268,19.43611 -18.833,47.71383 -18.8477,72.28906 -0.012,1.12148 -0.024,2.24297 -0.037,3.39844 -0,1.06734 -0,2.13468 -0.01,3.23437 -0,0.96051 -0.01,1.92103 -0.013,2.91065 0.015,2.52414 0.015,2.52414 2.243,4.33154 3.8462,0.85164 7.5408,1.12769 11.4713,1.14044 1.0612,0.006 2.1224,0.0114 3.2158,0.0173 1.1487,10e-4 2.2975,0.002 3.4811,0.003 1.8327,0.007 1.8327,0.007 3.7024,0.0151 3.3387,0.0121 6.6774,0.0195 10.0161,0.024 2.0876,0.003 4.1752,0.007 6.2628,0.0115 6.5369,0.0137 13.0739,0.0233 19.6109,0.0272 7.5372,0.004 15.0742,0.0221 22.6114,0.051 5.8345,0.0216 11.669,0.0317 17.5036,0.033 3.4816,10e-4 6.9631,0.007 10.4446,0.0248 3.8805,0.0195 7.7607,0.0152 11.6412,0.009 1.1507,0.009 2.3015,0.0184 3.4872,0.0279 1.5876,-0.008 1.5876,-0.008 3.2072,-0.0169 0.9168,10e-4 1.8336,0.003 2.7781,0.004 3.125,-0.45292 5.0165,-1.53894 7.5663,-3.37194 2.3617,-4.72356 1.2455,-11.21082 1.25,-16.4375 6e-4,-0.70368 0,-1.40735 0,-2.13236 -0.038,-25.16953 -3.8541,-50.21046 -21.8808,-69.17954 -15.5267,-14.73378 -34.6936,-16.89862 -55.1796,-16.55859 -17.5024,0.64075 -32.6541,7.17693 -44.5313,20.14453 z"
     fill="#000000"
     id="path8"
     style="fill:#ffffff" />
  <path
     d="m 1026.6488,384.63364 c 2.75,-0.36328 2.75,-0.36328 6,-0.3125 1.6088,0.006 1.6088,0.006 3.25,0.0117 2.75,0.30078 2.75,0.30078 4.75,2.30078 1.1259,3.99654 1.132,7.88322 1.1448,12.01666 0,0.69465 0.01,1.3893 0.011,2.105 0.011,2.32176 0.014,4.64347 0.018,6.96525 0.01,1.66772 0.013,3.33543 0.02,5.00315 0.015,3.59089 0.026,7.18177 0.036,10.77268 0.015,5.69274 0.04,11.38542 0.065,17.07812 0.071,16.1883 0.1308,32.37663 0.1822,48.565 0.028,8.94148 0.064,17.8829 0.1066,26.82432 0.027,5.64274 0.045,11.28541 0.056,16.9282 0.01,3.53644 0.027,7.07281 0.046,10.60921 0.01,1.62153 0.012,3.24309 0.012,4.86464 0,8.17187 0.2587,16.22986 1.1846,24.35462 0.076,0.67384 0.1515,1.34768 0.2295,2.04194 2.4211,19.21682 11.2849,36.05311 26.0758,48.62121 15.9664,11.80734 36.2604,13.21397 55.3803,10.94531 16.1004,-2.62263 29.3964,-9.6906 39.6822,-22.50781 12.213,-17.45699 15.0517,-37.02804 15.0371,-57.75684 0.01,-1.75379 0.013,-3.50758 0.021,-5.26136 0.015,-3.75616 0.024,-7.51226 0.028,-11.26844 0.01,-5.94253 0.028,-11.88495 0.053,-17.82743 0.053,-13.68012 0.086,-27.36027 0.1197,-41.04045 0.031,-12.55498 0.066,-25.10992 0.1163,-37.66484 0.023,-5.90478 0.037,-11.80948 0.043,-17.7143 0.01,-3.67252 0.02,-7.34497 0.036,-11.01746 0.01,-1.69992 0.01,-3.39985 0.01,-5.09978 -10e-4,-2.32457 0.01,-4.64879 0.024,-6.97331 0,-1.29927 0.01,-2.59853 0.01,-3.93717 0.2773,-3.92369 0.9318,-6.93421 2.2562,-10.62612 2.5876,-1.29377 4.5496,-1.16832 7.4375,-1.1875 0.9681,-0.0142 1.9362,-0.0284 2.9336,-0.043 2.6289,0.23047 2.6289,0.23047 5.6289,2.23047 1.3804,3.45914 1.1315,7.10863 1.1405,10.78683 0,0.6821 0.01,1.3642 0.01,2.06697 0.01,2.28556 0.01,4.57107 0.012,6.85665 0.01,1.63975 0.01,3.2795 0.015,4.91925 0.013,4.45977 0.02,8.91953 0.024,13.37933 0,2.79492 0.01,5.58985 0.012,8.38477 0.014,8.76833 0.023,17.53665 0.027,26.30499 0,10.07435 0.022,20.14856 0.051,30.22287 0.022,7.81183 0.032,15.62361 0.033,23.43547 10e-4,4.65198 0.01,9.30382 0.025,13.95576 0.1391,38.0117 -1.1993,74.7063 -28.4923,103.98789 -16.4519,15.71935 -38.3426,21.22295 -60.4912,21.05249 -25.2645,-0.60997 -47.6058,-7.74441 -65.3642,-26.35327 -22.9401,-27.42565 -21.4665,-64.3713 -21.37,-97.97386 0.011,-4.92325 0.01,-9.8465 0.01,-14.76976 -9e-4,-8.24191 0.01,-16.48373 0.029,-24.72562 0.021,-9.5281 0.025,-19.05608 0.018,-28.5842 -0.01,-9.1971 -1e-4,-18.39415 0.011,-27.59124 0,-3.90505 0.01,-7.81007 0,-11.71513 -0,-4.58191 0.01,-9.16369 0.022,-13.74557 0,-1.68226 0.01,-3.36454 0,-5.0468 -0,-2.29041 0.01,-4.58044 0.018,-6.8708 0,-1.28259 0,-2.56519 0.01,-3.88664 0.2544,-3.09038 0.2544,-3.09038 2.2544,-6.09038 z"
     fill="#000000"
     id="path9"
     style="fill:#ffffff" />
  <path
     d="m 2463.5162,384.47251 c 0.9892,-0.005 1.9784,-0.01 2.9975,-0.015 3.2651,-0.0146 6.5302,-0.0214 9.7953,-0.0269 2.2701,-0.006 4.5402,-0.0115 6.8104,-0.0173 4.7553,-0.0105 9.5106,-0.0163 14.266,-0.0198 6.0989,-0.006 12.1976,-0.0296 18.2965,-0.058 4.6865,-0.0186 9.373,-0.0238 14.0595,-0.0254 2.2491,-0.003 4.4983,-0.0111 6.7473,-0.0242 3.1409,-0.017 6.2812,-0.0152 9.4221,-0.009 0.9315,-0.009 1.8631,-0.0184 2.8228,-0.0279 6.2206,0.0404 6.2206,0.0404 9.4926,1.66056 1.9704,2.38757 1.9074,4.67216 1.9539,7.68866 -0.8032,3.0767 -1.9856,4.11453 -4.5313,6.03515 -2.9659,0.59478 -5.8919,0.53298 -8.9084,0.49829 -0.8998,0.005 -1.7995,0.011 -2.7265,0.0167 -1.9534,0.009 -3.9068,0.009 -5.8602,0.001 -3.0995,-0.0126 -6.1981,-0.001 -9.2976,0.016 -5.4719,0.0267 -10.9436,0.0323 -16.4156,0.0309 -8.733,-0.002 -17.4658,0.0121 -26.1987,0.0556 -3.0393,0.01 -6.0782,0.001 -9.1175,-0.009 -13.7218,-0.5553 -13.7218,-0.5553 -26.4755,3.38976 -3.4529,6.23006 -3.1475,13.68878 -3.1294,20.62573 -0,0.8334 -0,1.66681 -0.01,2.52547 -0,2.73478 -0,5.46949 0,8.20427 -7e-4,1.90855 -0,3.81711 -0,5.72566 -0,3.99014 7e-4,7.98025 0.01,11.97038 0.01,5.11456 0,10.22907 -0,15.34363 -0,3.93676 -0,7.8735 2e-4,11.81027 6e-4,1.88626 -2e-4,3.77252 -0,5.65878 -0,2.63279 0,5.26549 0.01,7.89826 -0,0.77879 -0,1.55757 -0.01,2.35996 -0.06,5.04032 -0.06,5.04032 1.1355,9.87759 3.26,1.63 6.8576,1.1623 10.4411,1.17359 0.8733,0.007 1.7466,0.0134 2.6464,0.0203 1.8999,0.0141 3.7999,0.026 5.6999,0.0359 3.0045,0.0164 6.0088,0.0396 9.0133,0.0649 8.5435,0.0709 17.087,0.13095 25.6307,0.18211 5.2219,0.0318 10.4437,0.073 15.6654,0.12019 1.9932,0.0161 3.9863,0.0284 5.9795,0.0369 2.7845,0.0121 5.5687,0.0363 8.3531,0.0631 0.8277,5.9e-4 1.6553,0.001 2.508,0.002 3.8688,0.0496 5.7692,0.1056 9.0626,2.30119 0.582,2.02344 0.582,2.02344 0.8125,4.375 0.089,0.77086 0.1779,1.54172 0.2695,2.33594 -0.095,2.65234 -0.5989,4.09585 -2.082,6.28906 -3.8745,1.29148 -7.5624,1.17734 -11.6023,1.20533 -0.8783,0.01 -1.7565,0.0198 -2.6614,0.03 -2.9056,0.0316 -5.8112,0.0564 -8.7168,0.0811 -2.0135,0.0206 -4.0271,0.0416 -6.0406,0.063 -5.3018,0.0552 -10.6036,0.10463 -15.9055,0.15285 -5.4093,0.0502 -10.8185,0.1059 -16.2277,0.16113 -10.6152,0.10758 -21.2304,0.20902 -31.8457,0.30664 -2.5783,3.86726 -2.2816,7.9193 -2.2588,12.38941 -0,0.84444 -0.01,1.68888 -0.011,2.55891 -0.01,2.79205 -0,5.58385 0,8.3759 -0,1.94571 -0,3.89141 -0.01,5.83711 -0,4.08127 0,8.16245 0.011,12.2437 0.011,5.21398 0,10.42775 -0.01,15.64171 -0.01,4.02105 -0,8.04205 3e-4,12.06311 0,1.9212 -3e-4,3.8424 -0,5.7636 -0.01,2.69684 0,5.39336 0.014,8.09018 -0,0.78422 -0.01,1.56844 -0.012,2.37643 -0.024,9.26584 -0.024,9.26584 3.7235,17.37264 7.1099,5.91397 22.5051,3.584 31.2431,3.59226 3.1394,0.004 6.2785,0.0205 9.4179,0.0408 8.9171,0.0552 17.8343,0.0863 26.7516,0.11058 5.4722,0.0158 10.9442,0.046 16.4163,0.0848 2.0832,0.0117 4.1665,0.0176 6.2498,0.0177 2.8988,1.9e-4 5.797,0.0184 8.6957,0.0406 0.8638,-0.005 1.7277,-0.009 2.6177,-0.0139 2.3824,0.0292 2.3824,0.0292 6.1555,0.4145 2.0403,3.06048 2.3159,3.93496 2.375,7.4375 0.028,0.76184 0.057,1.52367 0.086,2.3086 -0.672,3.2863 -1.7626,4.24809 -4.4609,6.2539 -3.047,0.59771 -6.0554,0.53604 -9.1521,0.50171 -1.3887,0.008 -1.3887,0.008 -2.8055,0.0164 -3.0652,0.0125 -6.1295,-0.004 -9.1947,-0.022 -2.138,1.5e-4 -4.2759,0.002 -6.4138,0.004 -4.4882,0.001 -8.9762,-0.0112 -13.4644,-0.034 -5.7226,-0.0282 -11.4447,-0.0257 -17.1674,-0.0129 -4.421,0.007 -8.8418,-8.9e-4 -13.2628,-0.0133 -2.1077,-0.004 -4.2154,-0.005 -6.3231,-9.4e-4 -30.9413,0.0308 -30.9413,0.0308 -41.9271,-10.00195 -7.4716,-7.87247 -8.4441,-18.31614 -8.4228,-28.74698 -0,-0.82153 -0,-1.64307 -0.01,-2.4895 -0.01,-2.74492 -0.01,-5.48979 -0,-8.23471 -0,-1.97154 -0.01,-3.94307 -0.01,-5.91461 -0.01,-5.35152 -0.011,-10.70303 -0.012,-16.05456 -7e-4,-3.34664 -0,-6.69327 -0.01,-10.0399 -0.01,-11.68481 -0.013,-23.3696 -0.013,-35.05441 6e-4,-10.87554 -0.01,-21.75104 -0.026,-32.62658 -0.013,-9.34885 -0.018,-18.69769 -0.018,-28.04655 2e-4,-5.57827 -0,-11.1565 -0.013,-16.73476 -0.01,-5.25146 -0.01,-10.50285 -0,-15.75432 0,-1.92036 -0,-3.84072 -0.01,-5.76107 -0.09,-30.40187 -0.09,-30.40187 9.5644,-40.79205 7.3636,-6.92175 15.9212,-7.33683 25.555,-7.34842 z"
     fill="#000000"
     id="path10"
     style="fill:#ffffff" />
  <path
     d="m 1250.6732,384.37485 c 1.4552,-0.005 1.4552,-0.005 2.9397,-0.0106 3.184,-0.009 6.3676,-0.003 9.5516,0.004 2.221,-0.001 4.442,-0.003 6.663,-0.006 4.6433,-0.003 9.2865,0.001 13.9297,0.0107 5.9542,0.0114 11.9083,0.005 17.8625,-0.007 4.581,-0.007 9.1619,-0.005 13.7429,2.6e-4 2.1961,0.001 4.3922,-3.1e-4 6.5882,-0.005 3.0639,-0.005 6.1274,0.003 9.1912,0.0138 0.9081,-0.004 1.8162,-0.008 2.7519,-0.0123 0.8353,0.006 1.6707,0.0113 2.5314,0.0171 1.085,0.001 1.085,0.001 2.192,0.002 2.4287,0.30089 3.9932,0.89579 6.0315,2.25168 1.2283,4.64996 1.2598,7.73164 -1,12 -2.1032,2.10323 -6.785,1.15423 -9.6914,1.15771 -1.3684,0.008 -1.3684,0.008 -2.7645,0.0154 -1.9894,0.0107 -3.9789,0.0193 -5.9683,0.0261 -3.1531,0.0118 -6.306,0.0312 -9.4591,0.0531 -8.968,0.0617 -17.9361,0.11555 -26.9043,0.14902 -5.4801,0.021 -10.9601,0.0564 -16.4401,0.10076 -2.0859,0.0141 -4.1718,0.0229 -6.2576,0.026 -2.9297,0.005 -5.8586,0.0282 -8.7881,0.0553 -1.2816,-0.004 -1.2816,-0.004 -2.5891,-0.009 -6.6972,0.0917 -12.9291,1.28667 -18.575,5.05061 -3.8203,5.80698 -3.8564,13.26912 -3.8054,20.02832 -0,0.81258 -0,1.62517 -0.01,2.46237 -0,2.65425 0.01,5.30822 0.018,7.96244 0,1.85846 0,3.71692 0,5.57537 0,3.87987 0.01,7.75963 0.023,11.63947 0.017,4.96868 0.021,9.93726 0.02,14.90596 3e-4,3.83129 0.01,7.66256 0.013,11.49384 0,1.8324 0.01,3.66481 0.01,5.49721 0,2.55813 0.011,5.11616 0.022,7.67428 -4e-4,0.75334 -9e-4,1.50669 -0,2.28286 0.023,3.72056 0.073,7.27172 1.1467,10.85288 3.3044,1.65222 6.9911,1.16239 10.6247,1.17358 1.3392,0.01 1.3392,0.01 2.7055,0.0203 1.9425,0.0141 3.885,0.0259 5.8276,0.0359 3.0717,0.0164 6.1432,0.0396 9.2149,0.0649 8.7346,0.0709 17.4694,0.13096 26.2042,0.18212 5.3386,0.0317 10.6771,0.073 16.0156,0.12019 2.0378,0.0161 4.0756,0.0284 6.1134,0.0369 2.8468,0.0121 5.6932,0.0362 8.5399,0.0631 0.8464,5.9e-4 1.6927,10e-4 2.5647,0.002 3.9039,0.0489 5.8679,0.0868 9.1895,2.30119 0.3633,2.02344 0.3633,2.02344 0.3125,4.375 -0,0.77086 -0.01,1.54172 -0.012,2.33594 -0.3296,2.5077 -0.9665,4.14844 -2.3008,6.28906 -3.3598,1.67986 -7.1591,1.18091 -10.856,1.20532 -0.9171,0.01 -1.8342,0.0198 -2.7792,0.03 -3.0408,0.0317 -6.0817,0.0564 -9.1226,0.0811 -2.1047,0.0206 -4.2093,0.0416 -6.314,0.063 -5.5467,0.0553 -11.0936,0.10465 -16.6404,0.15285 -5.6572,0.0502 -11.3143,0.10588 -16.9714,0.16113 -11.1054,0.10764 -22.2109,0.20907 -33.3164,0.30664 -0.046,11.57909 -0.082,23.15815 -0.1037,34.73732 -0.01,5.37722 -0.024,10.75439 -0.047,16.13158 -0.022,5.19361 -0.034,10.38717 -0.039,15.58082 -0,1.97704 -0.011,3.95407 -0.022,5.93108 -0.015,2.77865 -0.016,5.55706 -0.016,8.33575 -0.01,0.80921 -0.014,1.61842 -0.022,2.45215 0.024,6.6357 0.4216,13.22889 4.3114,18.7688 6.3348,4.44784 14.1234,4.35425 21.6323,4.31787 1.3846,0.005 1.3846,0.005 2.7972,0.011 1.9872,0.007 3.9743,0.009 5.9615,0.008 3.1437,-9.7e-4 6.2871,0.012 9.4308,0.029 8.9317,0.0461 17.8635,0.0709 26.7954,0.0775 5.4764,0.005 10.9525,0.0292 16.4288,0.0653 2.0852,0.01 4.1705,0.0121 6.2558,0.007 2.9061,-0.007 5.8112,0.0101 8.7172,0.0328 0.8634,-0.008 1.7268,-0.0163 2.6164,-0.0248 5.8147,0.0811 5.8147,0.0811 8.3324,2.44606 1.0193,2.1999 1.4024,3.67633 1.4072,6.09287 0.019,0.66 0.039,1.32 0.059,2 -0.7646,3.08214 -1.9476,4.09119 -4.4961,6 -3.0631,0.59515 -6.0879,0.52572 -9.1997,0.48584 -0.9307,0.004 -1.8613,0.008 -2.8201,0.0115 -3.0797,0.007 -6.1584,-0.014 -9.2381,-0.0364 -2.145,-0.002 -4.2901,-0.003 -6.4352,-0.003 -4.5009,-0.003 -9.0015,-0.0197 -13.5023,-0.0465 -5.7497,-0.0339 -11.4991,-0.0416 -17.2489,-0.0401 -4.4337,-5.5e-4 -8.8674,-0.0115 -13.3011,-0.026 -2.1185,-0.006 -4.237,-0.0103 -6.3556,-0.0118 -2.9745,-0.004 -5.9486,-0.022 -8.923,-0.0432 -0.8647,9e-4 -1.7295,0.002 -2.6205,0.003 -10.3994,-0.10763 -21.1612,-1.82923 -29.211,-8.92999 -6.9156,-7.59867 -8.2958,-15.92878 -8.285,-25.9456 -0,-0.86293 -0.01,-1.72586 -0.01,-2.61494 -0.01,-2.89088 -0.01,-5.78172 -0.012,-8.67261 -0,-2.07316 -0.01,-4.14632 -0.015,-6.21947 -0.013,-5.63243 -0.02,-11.26484 -0.024,-16.89728 -0,-3.52033 -0.01,-7.04065 -0.011,-10.56097 -0.014,-11.0183 -0.023,-22.0366 -0.027,-33.05492 -0,-12.71138 -0.022,-25.42265 -0.051,-38.134 -0.022,-9.83032 -0.032,-19.66062 -0.033,-29.49097 -10e-4,-5.86888 -0.01,-11.73765 -0.025,-17.60651 -0.016,-5.52315 -0.019,-11.04612 -0.01,-16.56929 8e-4,-2.0228 -0,-4.0456 -0.013,-6.06837 -0.1193,-25.90978 -0.1193,-25.90978 9.3711,-35.52875 7.8023,-6.34847 16.2862,-7.30259 26.0244,-7.25879 z"
     fill="#000000"
     id="path11"
     style="fill:#ffffff" />
  <path
     d="m 457.64885,121.63364 c 3.30137,6.60275 0.19039,15.18098 -1.875,21.75 -0.31026,0.99572 -0.62052,1.99144 -0.94019,3.01733 -9.93752,30.651 -27.15565,54.7175 -56.18481,69.54517 -6.79081,3.34234 -13.64253,5.85776 -21,7.6875 -0.84047,0.2243 -1.68094,0.44859 -2.54688,0.67969 -9.06891,2.05599 -19.19458,2.07806 -28.45312,1.32031 -1,-1 -1,-1 -1.30078,-4.25 0.0921,-6.20445 2.21459,-11.89959 4.11328,-17.75 0.39945,-1.25297 0.7989,-2.50594 1.21045,-3.79688 1.07994,-3.37285 2.17955,-6.73896 3.28656,-10.10302 0.69775,-2.12217 1.39085,-4.24582 2.08356,-6.36963 1.16435,-3.56078 2.34579,-7.11551 3.53964,-10.66651 0.45371,-1.35267 0.90405,-2.70648 1.35064,-4.06152 4.60351,-13.91649 10.335,-25.47142 20.71665,-36.00244 0.55172,-0.62391 1.10344,-1.24781 1.67187,-1.89063 18.58198,-20.42177 51.13024,-23.02811 74.32813,-9.10937 z"
     fill="#000000"
     id="path12"
     style="fill:#ffffff" />
  <path
     d="m 892.14885,384.19614 c 0.75281,0.001 1.50562,0.003 2.28125,0.004 2.99064,0.58443 4.11865,1.17534 6.21875,3.43359 0.39674,3.11428 0.53368,5.87703 0.49879,8.99393 0.005,0.93134 0.0108,1.86269 0.0163,2.82226 0.0133,3.13461 -0.002,6.26845 -0.0168,9.40305 0.004,2.24197 0.009,4.48394 0.0167,6.7259 0.012,4.83568 0.0114,9.67115 0.001,14.50683 -0.0155,7.64791 -0.002,15.29561 0.016,22.94351 0.0223,10.72529 0.0327,21.4505 0.0317,32.17581 -6e-5,0.68079 -1.1e-4,1.36159 -1.7e-4,2.06301 -2.7e-4,2.758 -5.9e-4,5.51599 -9.7e-4,8.27399 -9.6e-4,7.5794 3.6e-4,15.1588 0.003,22.73819 3.6e-4,1.01722 3.6e-4,1.01722 7.3e-4,2.05499 0.004,11.32176 0.0208,22.64346 0.0445,33.9652 0.0149,7.60026 0.0147,15.20033 0.003,22.8006 -0.005,4.7346 0.003,9.46912 0.0136,14.20371 0.002,2.19253 -3.2e-4,4.38506 -0.009,6.57758 -0.0107,2.99873 -0.003,5.99689 0.009,8.99561 -0.0114,1.29415 -0.0114,1.29415 -0.023,2.61444 0.0491,5.71701 0.86572,10.95446 3.39477,16.14139 6.32865,5.75332 14.29708,5.14688 22.37598,5.14185 0.91303,0.003 1.82607,0.007 2.76678,0.0105 1.97135,0.007 3.94271,0.0127 5.91407,0.0163 3.11831,0.007 6.23647,0.0229 9.35473,0.0414 8.86181,0.0523 17.72354,0.10051 26.58551,0.11592 5.42877,0.0101 10.85714,0.0393 16.28576,0.0813 2.06847,0.0123 4.13701,0.0174 6.20552,0.0152 2.88485,-0.002 5.76855,0.0197 8.6532,0.0475 0.8572,-0.007 1.7144,-0.0132 2.5976,-0.02 5.7465,0.0913 5.7465,0.0913 8.295,2.36441 1.7164,3.88406 1.5132,7.5856 0.1533,11.56062 -1.1875,1.625 -1.1875,1.625 -4.1875,2.625 -2.3664,0.0953 -4.7356,0.12795 -7.104,0.12939 -1.0815,0.003 -1.0815,0.003 -2.185,0.005 -2.39585,0.004 -4.79164,0.001 -7.18751,-0.002 -1.6846,6.8e-4 -3.36921,0.002 -5.05381,0.003 -3.54929,10e-4 -7.09856,-6.7e-4 -10.64785,-0.005 -3.59182,-0.005 -7.18358,-0.005 -10.77539,0 -11.68274,0.015 -23.36418,-0.0129 -35.04639,-0.13037 -0.68038,-0.006 -1.36076,-0.013 -2.06175,-0.0197 -4.09275,-0.0428 -8.18278,-0.12682 -12.27419,-0.23814 -0.94509,-0.0136 -1.89019,-0.0272 -2.86392,-0.0412 -7.705,-0.27631 -15.20552,-2.09282 -21.51889,-6.67364 -0.58781,-0.68964 -1.17563,-1.37929 -1.78125,-2.08984 -0.91266,-1.0074 -0.91266,-1.0074 -1.84375,-2.03516 -4.44981,-7.79765 -5.10138,-16.41847 -5.08862,-25.21899 -0.0102,-1.08185 -0.0204,-2.16369 -0.0309,-3.27832 -0.0301,-3.58428 -0.0394,-7.1683 -0.0485,-10.75269 -0.0172,-2.567 -0.0355,-5.13399 -0.0551,-7.70097 -0.0435,-6.19257 -0.0734,-12.38506 -0.0959,-18.57774 -0.0184,-5.00767 -0.0422,-10.01529 -0.0698,-15.02292 -0.004,-0.71215 -0.008,-1.4243 -0.0118,-2.15803 -0.008,-1.44369 -0.0159,-2.88739 -0.0238,-4.33109 -0.0721,-13.22661 -0.12577,-26.45324 -0.17217,-39.67996 -0.0373,-10.51167 -0.0904,-21.02314 -0.15827,-31.53466 -0.0729,-11.3029 -0.13315,-22.60575 -0.17298,-33.90882 -0.0206,-5.81166 -0.0469,-11.62315 -0.0881,-17.43471 -0.0377,-5.4118 -0.0562,-10.82332 -0.0594,-16.23524 -0.004,-1.97034 -0.0156,-3.94067 -0.0342,-5.91092 -0.0241,-2.66834 -0.0236,-5.33555 -0.0167,-8.00396 -0.0128,-0.776 -0.0256,-1.55199 -0.0388,-2.3515 0.0344,-3.52467 0.23178,-5.43867 2.3995,-8.2804 2.4329,-1.75483 3.63838,-2.03523 6.6093,-1.95892 z"
     fill="#000000"
     id="path13"
     style="fill:#ffffff" />
  <path
     d="m 1315.1488,676.13364 c 2.5,0.5 2.5,0.5 4.0821,1.95312 2.1037,3.77853 2.2426,7.53615 2.6054,11.79688 0.1228,1.2607 0.1228,1.2607 0.2481,2.54687 0.1996,2.06664 0.3836,4.13477 0.5644,6.20313 3.3026,0 5.4066,-2.61556 7.875,-4.625 5.9971,-4.73037 12.0332,-8.44343 19.125,-11.375 0.8109,-0.33902 1.6217,-0.67805 2.4571,-1.02734 16.9191,-5.7818 37.3436,-2.2906 53.0429,5.33984 12.7544,6.83319 20.567,16.41802 25.4336,30.07031 6.0318,20.45932 6.251,42.3592 -3.9336,61.61719 -8.7819,14.29709 -20.8059,23.1377 -36.6875,28.16797 -17.971,4.27214 -36.8357,1.71425 -52.8437,-7.64844 -4.4295,-2.87177 -8.4585,-6.09615 -12.4688,-9.51953 -0.66,-0.33 -1.32,-0.66 -2,-1 -0.01,0.90789 -0.012,1.81578 -0.018,2.75117 -0.058,8.54933 -0.1299,17.09838 -0.218,25.64745 -0.045,4.39535 -0.084,8.7906 -0.1107,13.1861 -0.026,4.24065 -0.066,8.48094 -0.1167,12.72136 -0.017,1.6191 -0.028,3.23826 -0.034,4.85743 -0.01,2.2653 -0.038,4.52967 -0.07,6.79474 -0.017,1.93526 -0.017,1.93526 -0.034,3.90962 -0.3988,3.13213 -0.3988,3.13213 -1.7383,5.0488 -2.6102,1.70295 -4.6317,1.46192 -7.6605,1.08333 -1.6636,-1.07311 -1.6636,-1.07311 -3,-3 -0.2945,-2.48502 -0.4049,-4.71989 -0.3809,-7.20531 -0,-0.73886 -0.01,-1.47772 -0.014,-2.23898 -0.012,-2.48286 -0,-4.96518 0.01,-7.44804 -0,-1.77719 -0.01,-3.55437 -0.016,-5.33155 -0.014,-4.83264 -0.01,-9.66509 0,-14.49774 0.01,-5.05236 5e-4,-10.1047 -0,-15.15706 -0.01,-8.48651 0,-16.97295 0.016,-25.45945 0.016,-9.8163 0.011,-19.63241 -0.01,-29.44871 -0.014,-8.4213 -0.016,-16.84254 -0.01,-25.26385 0,-5.03257 0.01,-10.06506 -0,-15.09762 -0.01,-4.73192 -0,-9.46359 0.015,-14.19548 0,-1.73827 0,-3.47655 -0,-5.21481 -0.01,-2.36998 0,-4.73918 0.017,-7.10911 -0.01,-0.69056 -0.013,-1.38113 -0.02,-2.09262 0.037,-3.0186 0.2746,-5.0149 1.7688,-7.66669 1.6324,-1.57298 1.6324,-1.57298 4.1324,-2.07298 z m 20.2774,28.3125 c -11.2312,13.82306 -17.0755,36.00241 -16.1484,53.78516 1.8477,11.96164 8.4663,19.95842 17.996,27.08984 4.162,2.74428 8.5061,4.98621 13,7.125 0.6093,0.29028 1.2185,0.58056 1.8462,0.87964 12.4387,5.66138 25.6003,6.10474 38.5328,1.56177 13.2094,-5.52833 21.3963,-13.95221 27.5859,-26.72657 3.2302,-8.08002 3.7486,-15.14472 3.7226,-23.77734 0.016,-1.05574 0.032,-2.11148 0.049,-3.19922 0.01,-14.52866 -4.0648,-27.06818 -14.0488,-37.86328 -10.7324,-9.88788 -23.9022,-14.48286 -38.4687,-13.96875 -13.3104,1.31641 -24.8139,5.10334 -34.0664,15.09375 z"
     fill="#000000"
     id="path14"
     style="fill:#ffffff" />
  <path
     d="m 2169.5355,697.32505 c 10.997,12.01332 14.6565,26.62152 16.2579,42.39062 -0.167,3.3715 -0.7642,4.57042 -3.1446,6.91797 -2.7611,0.92037 -4.4042,1.12837 -7.2508,1.13803 -1.2997,0.008 -1.2997,0.008 -2.6256,0.0165 -0.9476,0.001 -1.8953,0.002 -2.8716,0.003 -1.0003,0.005 -2.0005,0.0102 -3.031,0.0154 -2.1739,0.0107 -4.3478,0.0193 -6.5216,0.0261 -3.4373,0.0118 -6.8744,0.0312 -10.3116,0.0531 -9.7732,0.0617 -19.5465,0.11574 -29.3199,0.14902 -5.9752,0.0209 -11.9502,0.0562 -17.9253,0.10076 -2.2806,0.0142 -4.5613,0.0229 -6.8419,0.0261 -3.1845,0.005 -6.3683,0.028 -9.5526,0.0553 -1.4215,-0.005 -1.4215,-0.005 -2.8716,-0.009 -0.8665,0.0111 -1.7329,0.0222 -2.6256,0.0336 -0.7529,0.003 -1.5058,0.007 -2.2815,0.01 -2.5156,0.48791 -3.4239,1.37219 -4.9694,3.38197 -0.4971,10.80214 6.4974,22.43364 13.1875,30.4375 9.3896,9.69246 20.9676,14.44712 34.2867,14.96313 15.3325,0.24172 28.0057,-5.17015 41.6416,-11.61621 4.0092,-1.66905 7.1884,-1.86208 11.5092,-1.47192 0.9617,0.0786 1.9233,0.15726 2.9141,0.23828 2.4609,0.44922 2.4609,0.44922 4.4609,2.44922 -0.375,3.125 -0.375,3.125 -1,6 -0.5336,0.14695 -1.0673,0.2939 -1.6172,0.44531 -4.4161,1.32943 -8.0877,2.88855 -11.9453,5.42968 -17.8114,11.0668 -41.41,11.97874 -61.4375,8.125 -8.572,-2.35886 -15.9595,-5.56628 -23,-10.99999 -1.0312,-0.7425 -2.0625,-1.485 -3.125,-2.25 -12.9055,-12.3444 -18.8738,-29.49905 -19.3496,-47.01709 -0.081,-10.51994 0.3905,-19.91767 4.4746,-29.73291 0.3623,-0.89332 0.7245,-1.78664 1.0977,-2.70703 6.7825,-14.96746 18.8911,-25.41391 33.9219,-31.51954 23.3491,-8.3326 51.9867,-2.43579 69.8671,14.91792 z m -85.5898,9.39844 c -5.8776,7.44701 -10.2101,16.43958 -11.2969,25.91015 1.6198,3.07373 1.6198,3.07373 3.8831,3.67915 3.5735,0.54163 7.1636,0.46811 10.7693,0.46612 0.872,0.003 1.7439,0.007 2.6423,0.0102 2.881,0.01 5.7619,0.0114 8.6428,0.0125 2.0026,0.003 4.0051,0.007 6.0076,0.0101 4.1964,0.006 8.3927,0.008 12.5891,0.007 5.3804,-10e-5 10.7606,0.0136 16.1409,0.0308 4.135,0.0111 8.2699,0.0131 12.4048,0.0126 1.9839,0.001 3.9679,0.006 5.9518,0.0133 2.7721,0.01 5.5439,0.007 8.316,8.9e-4 1.2313,0.008 1.2313,0.008 2.4876,0.017 3.8543,-0.0214 6.903,-0.0586 10.1647,-2.25995 -0.6829,-13.65876 -6.9091,-24.39597 -16.6875,-33.68746 -21.4803,-17.90023 -53.1618,-14.12723 -72.0156,5.77735 z"
     fill="#000000"
     id="path15"
     style="fill:#ffffff" />
  <path
     d="m 2466.6488,682.63364 c 5.4339,-0.36226 5.4339,-0.36226 7.657,1.06013 2.0466,2.95605 1.8663,5.60416 2.0196,9.16521 0.033,0.71093 0.066,1.42186 0.1002,2.15433 0.3152,7.33508 0.3756,14.6739 0.399,22.01486 0.016,2.13044 0.035,4.26084 0.053,6.39125 0.045,5.16408 0.083,10.32803 0.097,15.4923 0.01,3.63675 0.04,7.27293 0.081,10.90946 0.018,2.02203 0.016,4.04421 0.013,6.06632 0.1703,12.89266 3.5158,22.31652 12.3925,31.65239 7.2534,6.90235 16.6979,10.54192 26.7579,10.37109 10.5723,-1.2068 21.4929,-5.71287 28.8046,-13.58984 6.191,-7.92726 7.7105,-16.40959 7.9063,-26.26587 0.018,-0.73412 0.036,-1.46823 0.055,-2.22459 0.038,-1.58445 0.075,-3.16895 0.1096,-4.75348 0.055,-2.50974 0.1156,-5.0193 0.1775,-7.52887 0.1525,-6.22999 0.2959,-12.46018 0.4394,-18.69039 0.1218,-5.27267 0.2472,-10.54524 0.3772,-15.81771 0.06,-2.4688 0.1137,-4.93768 0.1678,-7.40661 0.037,-1.51701 0.074,-3.03401 0.1113,-4.55101 0.014,-0.68325 0.027,-1.3665 0.041,-2.07046 0.093,-3.55209 0.1834,-6.9718 1.2402,-10.37851 3,-2 3,-2 5.5625,-1.75 2.4375,0.75 2.4375,0.75 4.4375,2.75 0.2545,2.22163 0.2545,2.22163 0.2607,5.04364 0.01,1.06794 0.014,2.13589 0.021,3.23619 -0,1.17706 -0.01,2.35412 -0.01,3.56685 0.01,1.23601 0.01,2.47203 0.015,3.7455 0.012,3.39955 0.014,6.79886 0.011,10.19842 -0,2.84449 0,5.68896 0.01,8.53344 0.011,6.7242 0.012,13.44834 0.01,20.17254 -0.01,6.90831 0.01,13.81642 0.028,20.7247 0.018,5.94587 0.024,11.89167 0.02,17.83757 -0,3.54398 7e-4,7.08782 0.015,10.63179 0.015,3.97006 0.01,7.93987 -0.01,11.90995 0.01,1.15277 0.015,2.30553 0.023,3.49324 -0.1142,17.93787 -4.7558,31.22493 -17.3955,43.90617 -1.0518,1.08668 -1.0518,1.08668 -2.125,2.19531 -11.9271,11.53246 -28.2159,15.3296 -44.406,15.22876 -7.8249,-0.26263 -15.0388,-2.0557 -22.469,-4.42407 -1.1756,-0.37383 -2.3512,-0.74766 -3.5625,-1.13281 -8.7057,-3.16002 -8.7057,-3.16002 -10.75,-7.36719 -0.6599,-3.3597 -0.8181,-5.2964 0.3125,-8.5 0.33,-0.33 0.66,-0.66 1,-1 5.8486,0.42757 10.7376,2.27534 16.125,4.5 12.2991,5.02869 27.062,7.355 40,2.875 1.6484,-0.74177 3.2755,-1.53312 4.875,-2.375 1.2685,-0.61875 1.2685,-0.61875 2.5625,-1.25 10.7254,-5.75509 17.2739,-14.47123 21.4375,-25.75 0.4125,-1.09312 0.825,-2.18625 1.25,-3.3125 1.4987,-7.36827 2.5999,-15.31582 0.75,-22.6875 -3.961,1.01564 -6.8958,2.53059 -10.1875,4.875 -11.2326,7.77354 -24.032,9.39883 -37.3515,7.66406 -12.597,-2.37416 -23.5534,-7.13206 -31.461,-17.53906 -8.089,-13.24937 -9.3591,-25.69894 -9.6875,-40.875 -0.02,-0.8045 -0.04,-1.60899 -0.06,-2.43787 -0.3451,-14.31886 -0.2007,-28.61911 0.1229,-42.93713 0.021,-0.97741 0.043,-1.95482 0.064,-2.96185 0.063,-2.76815 0.134,-5.53593 0.2091,-8.30378 0.02,-0.83155 0.04,-1.66311 0.06,-2.51986 0.1744,-5.73091 0.1744,-5.73091 1.2912,-7.96451 z"
     fill="#000000"
     id="path16"
     style="fill:#ffffff" />
  <path
     d="m 1644.0863,693.32114 c 12.4203,10.70566 19.3584,26.65525 20.784,42.82397 0.9093,19.82523 -2.2711,37.43768 -15.659,52.92603 -11.8823,12.40424 -26.4361,18.55147 -43.5625,19.5625 -1.0963,0.0793 -1.0963,0.0793 -2.2148,0.16016 -15.9108,0.6089 -31.109,-4.08414 -43.2227,-14.53516 -13.5722,-13.14953 -20.4311,-28.63094 -20.8549,-47.53906 -0.1467,-18.48395 3.8096,-35.12642 17.0229,-48.84375 0.749,-0.73993 1.4979,-1.47985 2.2695,-2.24219 0.6149,-0.6368 1.2298,-1.27359 1.8633,-1.92969 23.2803,-22.43276 59.1879,-18.22831 83.5742,-0.38281 z m -81.4375,13.3125 c -6.6987,8.71281 -10.5256,20.03256 -11,31 -0.095,1.61262 -0.095,1.61262 -0.1914,3.25781 -0.4447,13.74353 1.9812,26.41389 10.1914,37.74219 0.6188,0.9075 1.2375,1.815 1.875,2.75 8.7285,9.24187 21.3911,15.84543 34.168,16.58594 16.1483,0.35289 29.2255,-3.95431 41.2695,-15.08594 11.7655,-12.46463 14.1276,-28.08327 13.8985,-44.48047 -0.4252,-13.36174 -5.7111,-26.02433 -14.9453,-35.73437 -10.5393,-9.46716 -22.5317,-13.44332 -36.5235,-13.31641 -14.7158,1.10599 -28.6335,6.26065 -38.7422,17.28125 z"
     fill="#000000"
     id="path17"
     style="fill:#ffffff" />
  <path
     d="m 1918.6488,646.63364 c 2.3432,0.25561 4.6785,0.59271 7,1 1.2345,2.46899 1.1735,4.2205 1.2461,6.98047 0.033,0.99967 0.066,1.99933 0.1,3.0293 0.061,2.09886 0.1179,4.19782 0.1718,6.29687 0.1894,5.57648 0.6386,10.41561 2.4824,15.69336 3.1479,0.91472 6.0443,1.16131 9.3165,1.24609 1.0112,0.0329 2.0225,0.0657 3.0644,0.0996 2.1249,0.0613 4.2499,0.11859 6.375,0.17188 1.515,0.0512 1.515,0.0512 3.0606,0.10351 0.9224,0.0251 1.8448,0.0501 2.7951,0.0759 2.3884,0.30298 2.3884,0.30298 5.3884,2.30298 0.2566,3.07921 0.3944,5.21137 -1,8 -2.882,0.96069 -4.9232,1.17706 -7.9296,1.28125 -1.4406,0.0561 -1.4406,0.0561 -2.9102,0.11328 -1.0016,0.0348 -2.0032,0.0696 -3.0352,0.10547 -1.9766,0.0692 -3.9532,0.14202 -5.9296,0.21875 -0.8764,0.0303 -1.7528,0.0606 -2.6558,0.0918 -2.5814,0.19257 -5.0146,0.62948 -7.5396,1.18945 -1.2681,3.80455 -1.1474,7.37538 -1.1452,11.33935 -0,0.85073 -0.01,1.70145 -0.01,2.57795 -0.01,2.81664 -0.011,5.63323 -0.013,8.44989 -0,1.95671 -0.01,3.91343 -0.01,5.87014 -0.01,4.104 -0.01,8.20798 -0.01,12.31199 10e-5,5.2581 -0.014,10.51606 -0.031,15.77413 -0.011,4.04233 -0.013,8.08462 -0.013,12.12696 -0,1.93847 -0.01,3.87694 -0.013,5.81539 -0.01,2.71212 -0.01,5.42394 -9e-4,8.13606 -0.01,1.20026 -0.01,1.20026 -0.017,2.42477 0.023,4.14481 0.2635,7.49507 2.2599,11.17337 1.9674,1.37727 1.9674,1.37727 4.3125,2.1875 0.8006,0.31969 1.6011,0.63937 2.4258,0.96875 1.1196,0.41766 1.1196,0.41766 2.2617,0.84375 4.9656,1.96552 4.9656,1.96552 6,3 0.1875,2.9375 0.1875,2.9375 0,6 -2.7241,2.72416 -4.3218,2.33088 -8.125,2.375 -5.8207,-0.10291 -10.2488,-0.70838 -14.875,-4.375 -6.9669,-7.88363 -6.2946,-18.50584 -6.2746,-28.44263 -0,-1.33472 -0.01,-2.66944 -0.015,-4.00416 -0.013,-3.59883 -0.014,-7.19754 -0.011,-10.79639 0,-3.00981 -0,-6.01961 -0.01,-9.02942 -0.011,-7.09738 -0.012,-14.19471 -0.01,-21.2921 0.01,-7.3182 -0.01,-14.63622 -0.028,-21.95439 -0.018,-6.29405 -0.024,-12.58804 -0.02,-18.88211 0,-3.75483 -8e-4,-7.50952 -0.015,-11.26432 -0.015,-4.17974 -0.01,-8.35908 0.01,-12.53883 -0.01,-1.24318 -0.015,-2.48636 -0.023,-3.76721 0.01,-1.13682 0.014,-2.27363 0.021,-3.4449 -10e-5,-0.98753 -3e-4,-1.97507 -5e-4,-2.99253 0.4319,-2.98586 1.386,-4.36738 3.3747,-6.59101 z"
     fill="#000000"
     id="path18"
     style="fill:#ffffff" />
  <path
     d="m 2345.9613,681.94614 c 0.7068,0.0343 1.4135,0.0686 2.1417,0.104 3.636,0.24002 5.4495,0.51925 8.5458,2.5835 0.6875,2.625 0.6875,2.625 1,5 -4.8072,3.87611 -8.1488,4.41379 -14.3125,4 -6.8303,-0.23107 -11.7794,0.26517 -17.6875,4 -1.0106,0.55687 -2.0212,1.11375 -3.0625,1.6875 -11.4508,9.0145 -17.1992,20.99351 -18.9375,35.3125 -0.9234,8.15329 -1.1602,16.23688 -1.2109,24.4375 -0.028,2.54818 -0.057,5.09636 -0.086,7.64453 -0.041,3.98094 -0.079,7.9618 -0.1045,11.94287 -0.028,3.86697 -0.073,7.73336 -0.1221,11.6001 -0,1.19681 -0.01,2.39363 -0.01,3.62671 -0.017,1.10545 -0.033,2.2109 -0.05,3.34985 -0.01,0.97276 -0.016,1.94552 -0.024,2.94776 -0.392,2.45068 -0.392,2.45068 -1.7266,4.26855 -2.5541,1.81295 -4.6288,1.50517 -7.6654,1.18213 -2.8672,-2.86723 -2.4585,-5.84275 -2.6123,-9.69995 -0.038,-0.79688 -0.075,-1.59376 -0.1135,-2.41479 -0.4374,-10.22395 -0.4584,-20.45446 -0.4773,-30.68604 -0,-1.04741 -0.01,-2.09482 -0.01,-3.17397 -0.015,-5.51713 -0.024,-11.03423 -0.029,-16.55137 -0.01,-5.68482 -0.03,-11.36941 -0.058,-17.05415 -0.019,-4.39487 -0.024,-8.78968 -0.025,-13.18458 -0,-2.09757 -0.011,-4.19514 -0.024,-6.29267 -0.017,-2.91892 -0.015,-5.83725 -0.01,-8.7562 -0.01,-0.86077 -0.018,-1.72153 -0.028,-2.60838 0.036,-5.13179 0.5739,-8.76745 4.3844,-12.5779 2.375,-0.3125 2.375,-0.3125 5,0 3.0376,3.11224 3.5899,6.02136 4.1875,10.25 0.1585,1.07766 0.3171,2.15531 0.4804,3.26562 0.1096,0.81985 0.2192,1.63969 0.3321,2.48438 0.8714,-0.73606 1.7428,-1.47211 2.6406,-2.23047 12.4874,-10.32085 23.2735,-15.29042 39.6719,-14.45703 z"
     fill="#000000"
     id="path19"
     style="fill:#ffffff" />
</svg>
