<?xml version="1.0" encoding="UTF-8" standalone="no"?>
<!-- Created with Inkscape (http://www.inkscape.org/) -->

<svg
   width="631.7818mm"
   height="154.1026mm"
   viewBox="0 0 631.7818 154.1026"
   version="1.1"
   id="svg1"
   inkscape:version="1.3.2 (091e20e, 2023-11-25, custom)"
   sodipodi:docname="moregar_horizontal_w.svg"
   inkscape:export-filename="moregar_horizontal_w.png"
   inkscape:export-xdpi="79.116127"
   inkscape:export-ydpi="79.116127"
   xmlns:inkscape="http://www.inkscape.org/namespaces/inkscape"
   xmlns:sodipodi="http://sodipodi.sourceforge.net/DTD/sodipodi-0.dtd"
   xmlns="http://www.w3.org/2000/svg"
   xmlns:svg="http://www.w3.org/2000/svg">
  <sodipodi:namedview
     id="namedview1"
     pagecolor="#ffffff"
     bordercolor="#000000"
     borderopacity="0"
     inkscape:showpageshadow="2"
     inkscape:pageopacity="0.0"
     inkscape:pagecheckerboard="0"
     inkscape:deskcolor="#d1d1d1"
     inkscape:document-units="mm"
     inkscape:zoom="0.51717104"
     inkscape:cx="1129.2202"
     inkscape:cy="339.34615"
     inkscape:window-width="1920"
     inkscape:window-height="1017"
     inkscape:window-x="1912"
     inkscape:window-y="-8"
     inkscape:window-maximized="1"
     inkscape:current-layer="layer1" />
  <defs
     id="defs1" />
  <g
     inkscape:label="Capa 1"
     inkscape:groupmode="layer"
     id="layer1"
     transform="translate(-120.24547,-386.0034)">
    <g
       id="g2"
       style="fill:#ffffff">
      <g
         id="g1"
         transform="translate(0,-82.243283)"
         style="fill:#ffffff">
        <path
           style="fill:#ffffff;stroke-width:0.264583"
           d="m 622.38146,591.52958 c -2.853,-0.15132 -8.664,-1.06632 -9.3108,-1.46611 -0.1178,-0.0728 -0.2142,-1.25643 -0.2142,-2.63028 0,-2.8113 0.064,-2.88107 1.8173,-1.98651 5.7838,2.95066 18.0264,3.12155 18.0264,0.25164 0,-1.26233 -2.0886,-2.00231 -7.4083,-2.62477 -6.8966,-0.80698 -10.9191,-2.53272 -11.8894,-5.10082 -2.4783,-6.55932 9.9083,-10.13812 25.1847,-7.27652 l 1.5214,0.28498 v 2.50997 c 0,2.91153 0.3379,2.77156 -3.4396,1.42462 -4.8277,-1.72132 -11.9308,-1.90113 -14.0025,-0.35443 -1.8284,1.36514 -0.134,2.68517 4.1289,3.21656 9.0484,1.1279 12.9118,2.43351 14.1015,4.76544 2.2194,4.35036 -2.8975,8.44648 -11.1071,8.89138 -1.3824,0.0749 -2.8707,0.16637 -3.3073,0.20325 -0.4365,0.0369 -2.282,-0.0119 -4.101,-0.1084 z m 37.5708,-0.0322 c -1.9645,-0.11579 -4.822,-0.47879 -6.35,-0.80664 l -2.7781,-0.59613 -0.077,-2.35712 c -0.099,-3.03461 -0.095,-3.03742 2.9529,-1.89593 7.1845,2.69092 16.3851,2.64295 16.7898,-0.0875 0.1957,-1.32014 -1.1782,-1.83996 -7.0169,-2.65501 -8.3124,-1.16036 -11.3789,-2.55397 -12.2867,-5.58403 -1.8632,-6.21872 11.8029,-9.86568 25.4349,-6.7876 l 1.4552,0.32859 0.084,2.31106 c 0.1003,2.77386 -0.02,2.87964 -2.2353,1.96246 -5.9996,-2.48406 -15.6711,-2.32328 -15.9217,0.26469 -0.1093,1.12887 0.7197,1.54713 4.1056,2.07129 1.4249,0.22061 3.8409,0.59394 5.3689,0.82966 14.3472,2.21321 12.9253,12.14794 -1.8521,12.94093 -1.3824,0.0742 -2.8707,0.1657 -3.3073,0.20335 -0.4365,0.0377 -2.4011,-0.0262 -4.3656,-0.14202 z M 421.29806,580.7046 v -10.58603 h 12.0088 12.0088 l -0.036,1.91823 -0.036,1.91823 -7.739,0.0701 -7.7391,0.0701 v 1.84809 1.84808 h 7.1438 7.1437 v 1.98438 1.98437 h -7.1437 -7.1438 v 2.77813 2.77812 h 7.8168 7.8168 l -0.078,1.91823 -0.078,1.91823 -11.9724,0.0688 -11.9724,0.0688 z m 35.1896,10.49448 c 0,-0.0474 2.5789,-2.45176 5.731,-5.3431 l 5.7309,-5.25695 -2.0929,-1.9403 c -1.1511,-1.06717 -3.6771,-3.3955 -5.6134,-5.17408 l -3.5204,-3.23379 4.8334,-0.0723 4.8335,-0.0723 3.3358,3.32838 3.3358,3.32838 3.4774,-3.32219 3.4774,-3.32218 h 4.6338 4.6337 l -2.9704,2.71221 c -1.6337,1.49175 -4.1312,3.7655 -5.5501,5.05283 -3.148,2.85628 -3.5749,1.75144 3.082,7.97766 l 5.6577,5.29167 -4.79,0.0723 -4.7901,0.0723 -3.4922,-3.48512 -3.4923,-3.48509 -0.7848,0.63465 c -0.4316,0.34904 -2.0792,1.91373 -3.6612,3.47708 l -2.8765,2.84242 -4.564,0.003 c -2.5102,0 -4.5641,-0.0369 -4.5641,-0.0843 z m 44.1854,-10.49718 v -10.58333 h 8.2466 c 13.4216,0 17.1659,1.41089 17.1476,6.46149 -0.018,4.97745 -4.1363,7.42701 -13.0249,7.74708 l -4.4318,0.1596 v 3.39923 3.39926 h -3.9687 -3.9688 z m 13.7884,-0.53168 c 6.3367,-1.18756 4.2395,-6.00456 -2.7393,-6.29198 l -3.1116,-0.12813 v 3.34359 3.34362 h 2.2129 c 1.217,0 2.8541,-0.1202 3.638,-0.2671 z m 22.4596,0.53856 v -10.59021 l 8.9296,0.003 c 4.9699,0 9.6901,0.12536 10.6444,0.28017 7.9003,1.28177 9.1025,8.17012 1.9438,11.13724 -1.7629,0.7307 -2.1534,0.17753 3.7246,5.27627 l 5.0019,4.33869 -4.8294,0.0722 -4.8295,0.0722 -3.612,-3.24532 c -1.9866,-1.78554 -3.9692,-3.57667 -4.4057,-3.9809 -0.7316,-0.67744 -0.9388,-0.72937 -2.6459,-0.66336 l -1.8521,0.0716 -0.045,3.83646 -0.045,3.83646 -3.9899,0.073 -3.9899,0.073 z m 15.1391,-1.34144 c 5.7374,-1.59343 2.7846,-5.54461 -4.1436,-5.54461 -3.1905,0 -2.97,-0.23526 -3.0384,3.24115 l -0.051,2.57969 3.1244,-0.003 c 1.7184,0 3.5671,-0.12443 4.1083,-0.27474 z m 25.6067,1.33456 v -10.58333 h 12.7 12.7 v 1.98437 1.98438 h -8.2021 -8.2021 v 1.85208 1.85208 h 7.5406 7.5407 v 1.98438 1.98437 h -7.5407 -7.5406 v 2.77813 2.77812 h 8.2021 8.2021 v 1.98438 1.98437 h -12.7 -12.7 z m 156.7053,2.32108 c -0.1471,-0.1852 -2.3542,-4.98014 -4.9047,-10.65545 -9.7539,-21.70388 -8.8936,-19.94402 -10.5686,-21.619 -2.5699,-2.56991 -5.4253,-3.64871 -9.6574,-3.64871 h -2.4579 v 17.99166 17.99167 h -8.9959 -8.9958 V 541.0144 498.94565 l 17.3963,0.004 c 19.0041,0.004 18.6127,-0.0231 22.8108,1.59585 11.2707,4.34644 16.2925,16.61304 12.1264,29.62107 -1.7683,5.52137 -5.6422,10.55268 -8.971,11.65128 -1.2699,0.41912 -1.2792,0.39291 0.72,2.04881 3.2743,2.71211 5.7217,6.85118 7.7786,13.15512 2.2328,6.84313 5.3891,14.26786 9.2567,21.77513 1.1647,2.26068 2.1176,4.20348 2.1176,4.31741 0,0.37981 -17.3523,0.29012 -17.6551,-0.0913 z m -16.666,-49.39586 c 9.649,-3.75035 8.7736,-18.43029 -1.2548,-21.04167 -1.0924,-0.28446 -2.82,-0.41063 -5.6224,-0.41063 h -4.0454 v 10.93611 c 0,6.01486 0.089,11.02736 0.1984,11.13889 0.4848,0.49543 9.1405,-0.007 10.7242,-0.6227 z m -381.3393,7.38728 v -42.06875 l 8.0036,0.002 8.0037,0.002 4.6734,8.13436 c 2.5704,4.4739 6.19,10.75375 8.0436,13.9552 1.8536,3.20146 4.5909,7.94136 6.0829,10.53312 1.492,2.59175 2.7704,4.61581 2.8409,4.49792 0.133,-0.22222 13.7416,-23.80872 18.6333,-32.2951 l 2.7833,-4.82868 h 8.0385 8.0385 v 42.06875 42.06875 h -8.7313 -8.7312 V 557.1548 c 0,-14.26104 -0.089,-25.92447 -0.1985,-25.91875 -0.1091,0.006 -2.3324,4.85753 -4.9405,10.78177 -2.6082,5.92425 -5.0612,11.48573 -5.4512,12.35886 -0.39,0.87312 -1.0413,2.33346 -1.4474,3.2452 l -0.7383,1.6577 -7.4177,-0.0702 -7.4177,-0.0702 -6.2366,-14.05292 -6.2365,-14.05292 -0.068,26.02531 -0.067,26.02532 h -8.7299 -8.73 z m 105.1719,22.19956 c -17.1833,-1.26613 -27.0281,-15.62338 -21.8226,-31.8249 6.7174,-20.90712 44.0658,-20.93051 51.0885,-0.032 5.7383,17.0764 -8.325,34.40205 -26.0632,32.10914 -0.1608,-0.0208 -1.602,-0.13429 -3.2027,-0.25224 z m 7.7721,-8.9397 c 6.9187,-2.15334 10.5774,-10.82823 8.3485,-19.79481 -3.4113,-13.72322 -21.93,-13.45032 -24.8575,0.3663 -2.7425,12.94298 5.6424,22.8106 16.509,19.42851 z m 28.2007,8.89899 c -0.069,-0.1819 -0.095,-10.80822 -0.058,-23.61406 l 0.068,-23.28333 h 14.1552 c 17.4405,0 20.1378,0.5219 24.5758,4.75501 5.7708,5.50438 3.5511,16.21568 -3.9253,18.94171 -0.8944,0.32609 -1.531,0.66818 -1.4149,0.7602 0.1162,0.092 0.9012,0.62787 1.7443,1.19078 2.3791,1.58826 3.7399,3.30769 5.5462,7.00793 2.4631,5.04549 4.5376,8.42818 8.6296,14.07185 0.3536,0.48771 0.1827,0.50046 -6.6146,0.49337 l -6.9776,-0.007 -3.2077,-5.08596 c -8.1312,-12.89239 -7.6905,-12.25616 -9.167,-13.23613 -1.7989,-1.19393 -3.7203,-1.7504 -6.7414,-1.95243 l -2.4474,-0.16367 v 10.22637 10.22636 h -7.0198 c -5.3721,0 -7.0493,-0.0776 -7.1459,-0.33073 z m 23.0837,-27.58359 c 9.2139,-2.74035 5.4108,-11.5857 -5.1477,-11.97257 l -3.7703,-0.13815 v 6.23897 6.23898 l 1.1245,0.11926 c 1.982,0.21021 6.3725,-0.0639 7.7935,-0.48649 z m 100.4872,27.73594 c -30.3812,-1.90617 -33.2659,-42.8048 -3.3073,-46.88997 7.4029,-1.00946 20.1983,0.46758 22.5619,2.60444 0.1125,0.10173 0.172,2.34312 0.1323,4.98086 l -0.072,4.79589 -1.7999,-1.15838 c -12.6118,-8.1166 -27.8194,-2.35526 -28.424,10.76831 -0.4922,10.68276 4.7493,16.09731 16.0025,16.53103 l 4.0349,0.15551 v -5.06507 -5.06507 h -5.5562 -5.5563 v -4.23333 -4.23334 h 11.9063 11.9062 v 11.64822 11.64821 l -0.6869,0.26116 c -4.4948,1.70894 -16.2075,3.74729 -19.4214,3.3799 -0.2183,-0.0249 -0.9922,-0.0827 -1.7198,-0.12837 z m 28.0147,-0.21849 c 0.059,-0.14552 2.511,-6.3963 5.4489,-13.89063 2.9379,-7.49432 6.3984,-16.30494 7.69,-19.57916 1.2916,-3.27422 3.0439,-7.73907 3.8938,-9.92188 l 1.5454,-3.96875 7.5279,-0.0701 7.5279,-0.0701 1.6334,4.17114 c 1.7589,4.49142 3.8115,9.72642 10.1422,25.86697 4.1735,10.64033 6.8767,17.58882 6.877,17.67679 1e-4,0.0277 -3.0209,0.0167 -6.7135,-0.0244 l -6.7137,-0.0747 -1.7068,-4.68778 -1.7069,-4.68778 -9.4431,-0.0695 -9.4432,-0.0695 -0.2485,0.59866 c -0.1367,0.32926 -0.9304,2.47389 -1.7639,4.76584 -1.0745,2.9549 -1.636,4.16809 -1.9302,4.17027 -0.2281,0.002 -3.1843,0.0315 -6.5693,0.0661 -4.0229,0.0412 -6.1175,-0.0286 -6.0474,-0.20152 z m 32.178,-18.22371 c 0,-0.0902 -0.7502,-2.17112 -4.0182,-11.14504 -0.583,-1.60073 -1.2997,-3.60169 -1.5929,-4.44658 -0.2931,-0.84489 -0.5735,-1.49551 -0.6232,-1.44583 -0.1154,0.11541 -6.2011,16.78638 -6.2011,16.98713 0,0.0825 2.798,0.15007 6.2177,0.15007 3.4198,0 6.2177,-0.0449 6.2177,-0.0998 z m -117.4129,17.69522 c -6.2093,-1.12556 -9.9346,-3.49442 -11.7464,-7.46935 l -0.7511,-1.64784 v -14.45389 -14.45392 l 0.7833,-1.6412 c 3.0566,-6.40446 8.2224,-7.89065 26.998,-7.76711 l 10.9802,0.0723 0.073,4.16718 0.073,4.16719 h -10.2775 c -15.0901,0 -15.6472,0.28944 -15.6593,8.13594 l -0.01,3.77031 h 12.9646 12.9646 v 4.10104 4.10104 h -12.9646 -12.9646 l 0.02,3.24115 c 0.046,7.41501 0.9911,7.87135 16.3003,7.87135 h 9.6087 v 4.10105 4.10104 l -12.237,-0.0239 c -8.8797,-0.0173 -12.7643,-0.11947 -14.1592,-0.37232 z"
           id="path1"
           sodipodi:nodetypes="ssscsssscscsssssssscccsssscccsscsssscccccccccccccccccccccccccsccsccccccccccccscccccscccssccssscccccccscccscccccscccccsscccccccsccccccccccccccccccccccccccccccscssccccccccssssssssscsscscccccccsscscccccccsccscccccccccccssssssscscccssscccsccssscccscccscccscsssccssscccccccccccsssssssccccscsscccccscccsssscssssscscccsscccscccccccccscccscc" />
      </g>
      <path
         d="M 138.32018,538.81534 C 104.57805,493.85159 119.66502,429.52746 170.36839,402.17635 l 2.0106,-1.08463 v 5.63363 5.63363 l -0.87482,0.4889 c -37.54001,20.97946 -52.14897,71.36646 -31.75547,109.53065 1.85768,3.47637 4.7604,8.13851 5.29454,8.50351 0.1219,0.0833 32.57269,0.15295 72.11287,0.15467 l 71.89121,0.003 1.30094,-2.01066 c 24.83972,-38.38904 14.03604,-88.48304 -24.61947,-114.14947 l -2.01512,-1.338 0.0195,-5.52976 c 0.0226,-6.45586 -0.1629,-5.88313 1.58924,-4.91252 48.368,26.79386 63.1637,88.61294 31.94549,133.47414 -0.97342,1.39886 -1.76991,2.67159 -1.76991,2.82829 0,0.70993 -0.22533,0.71196 -78.50555,0.70246 l -77.70772,-0.009 z m 35.85725,-14.07902 c -2.7399,-0.66381 -4.98737,-2.28339 -6.03335,-4.3479 l -0.6113,-1.20633 -0.0616,-7.16622 c -0.0335,-3.94142 -0.10374,-7.16622 -0.15542,-7.16622 -0.0514,0 -0.44021,0.18559 -0.86344,0.41244 -0.97365,0.52187 -1.82977,0.52259 -2.68316,0.002 l -0.67023,-0.40865 v -6.70525 -6.70526 h 11.85775 11.85782 v 4.22756 4.22756 h 31.13956 31.1395 v -4.22756 -4.22756 h 11.85782 11.85775 l -0.008,6.65067 -0.008,6.65067 -0.52518,0.38267 c -0.8346,0.60814 -1.99625,0.67248 -2.86695,0.15878 -0.40865,-0.24109 -0.7795,-0.43834 -0.82416,-0.43834 -0.0444,0 -0.10904,3.1784 -0.14295,7.06311 l -0.0616,7.06311 -0.59891,1.21967 c -3.73819,7.61346 -17.12103,6.03071 -18.15937,-2.14767 -0.14942,-1.17759 -0.33938,-2.02824 -0.86321,-3.86734 l -0.30858,-1.08335 -30.54339,0.0522 -30.54331,0.0522 -0.49111,1.75289 c -0.27015,0.96409 -0.58215,2.43657 -0.6933,3.27218 -0.671,5.04298 -6.03561,7.95385 -11.99679,6.50961 z m 17.5865,-33.59219 v -3.60063 l -8.924,-0.0599 -8.92392,-0.0598 -1.365,-0.67222 c -6.38928,-3.14652 -4.88908,-12.52781 2.1841,-13.65775 0.78269,-0.12504 4.4307,-0.21426 8.52805,-0.20858 3.93819,0.005 7.46188,0.008 7.83054,0.005 l 0.67023,-0.005 v -8.10563 -8.10563 l 2.31995,-2.26748 c 14.8283,-14.49328 32.17808,-14.39133 47.79201,0.28007 l 1.75292,1.6471 0.10312,8.28526 0.10312,8.28525 8.04263,-0.005 c 8.73506,-0.005 10.19204,0.0975 11.7547,0.83 5.03445,2.35976 5.43967,9.67801 0.70179,12.67517 -1.68791,1.0678 -2.26289,1.12264 -11.77216,1.12264 h -8.83008 v 3.60888 3.60889 h -25.984 -25.984 z M 179.3906,480.72164 v -3.712 h -3.712 -3.712 v 3.712 3.712 h 3.712 3.712 z m 10.51729,0 v -3.712 h -3.712 -3.712 v 3.712 3.712 h 3.712 3.712 z m 64.1351,0 v -3.712 h -3.712 -3.712 v 3.712 3.712 h 3.712 3.712 z m 10.51737,0 v -3.712 h -3.712 -3.712 v 3.712 3.712 h 3.712 3.712 z m -99.1929,-13.77485 v -1.81397 l 1.42892,-1.27936 1.42899,-1.27937 h 2.80148 2.80155 l -0.0545,-20.72535 -0.0546,-20.72535 2.32002,2e-5 2.32003,2e-5 v -16.3018 c 0,-17.79571 -0.0514,-17.02046 1.18262,-17.88621 1.97397,-1.38494 5.20081,-1.19914 6.52603,0.37584 l 0.54022,0.64204 v 40.40372 40.40374 h -10.62049 -10.62041 z m 83.93243,-38.66955 v -40.48352 l 0.64131,-0.65596 c 1.16496,-1.19159 3.59953,-1.4771 5.52634,-0.64818 2.03429,0.8751 1.86516,-0.71126 1.92533,18.06305 l 0.053,16.46768 2.31995,0.0583 2.32003,0.0583 v 20.71858 20.71858 l 2.83554,0.007 2.83554,0.007 1.39205,1.3318 1.39197,1.3318 v 1.75465 1.75468 h -10.62041 -10.62049 z m -57.53596,-3.64597 v -14.6397 l 1.90756,-0.95966 c 4.94472,-2.48759 10.95595,-4.48411 16.03373,-5.32531 1.07755,-0.1785 2.16134,-0.36965 2.40842,-0.42477 0.39088,-0.0872 0.49033,0.0408 0.76461,0.98442 1.37038,4.71385 8.23795,4.57015 9.4385,-0.19748 l 0.23491,-0.93309 1.25854,0.13706 c 5.26179,0.573 11.24496,2.39508 16.98307,5.17203 l 3.1449,1.52197 v 14.65212 14.65212 h -26.08713 -26.08711 z m 1.54661,-25.05863 c -3.04762,-1.0781 -3.4145,-5.05658 -0.61255,-6.64357 l 0.81878,-0.46374 23.93295,-0.003 23.93295,-0.003 0.93866,0.59528 c 2.73289,1.73314 2.11512,5.74302 -1.01894,6.61343 -1.3053,0.36252 -46.95397,0.27253 -47.99185,-0.0946 z"
         style="fill:#ffffff;stroke-width:0.206222"
         id="path1-5" />
    </g>
  </g>
</svg>
