<?xml version="1.0" encoding="UTF-8" standalone="no"?>
<!-- Generator: Adobe Illustrator 16.0.3, SVG Export Plug-In . SVG Version: 6.00 Build 0)  -->

<svg
   version="1.1"
   id="Capa_1"
   x="0px"
   y="0px"
   width="799.20599"
   height="347.99799"
   viewBox="0 0 799.20599 347.99799"
   enable-background="new 0 0 1200 1200"
   xml:space="preserve"
   sodipodi:docname="vg-white.svg"
   inkscape:version="1.3.2 (091e20e, 2023-11-25, custom)"
   xmlns:inkscape="http://www.inkscape.org/namespaces/inkscape"
   xmlns:sodipodi="http://sodipodi.sourceforge.net/DTD/sodipodi-0.dtd"
   xmlns:xlink="http://www.w3.org/1999/xlink"
   xmlns="http://www.w3.org/2000/svg"
   xmlns:svg="http://www.w3.org/2000/svg"><defs
   id="defs24" /><sodipodi:namedview
   id="namedview24"
   pagecolor="#ffffff"
   bordercolor="#000000"
   borderopacity="0.25"
   inkscape:showpageshadow="2"
   inkscape:pageopacity="0.0"
   inkscape:pagecheckerboard="0"
   inkscape:deskcolor="#d1d1d1"
   showgrid="false"
   inkscape:zoom="0.68416667"
   inkscape:cx="397.56395"
   inkscape:cy="174.66504"
   inkscape:window-width="2560"
   inkscape:window-height="1017"
   inkscape:window-x="-8"
   inkscape:window-y="-8"
   inkscape:window-maximized="1"
   inkscape:current-layer="Capa_1" />
<polygon
   points="220.785,747.688 205.686,747.688 205.686,756.278 220.438,756.278 220.438,759.976 205.686,759.976 205.686,772.494 201.794,772.494 201.794,743.951 220.785,743.951 "
   id="polygon1"
   transform="translate(-201.794,-424.99701)"
   style="fill:#ffffff" />
<rect
   x="47.452003"
   y="318.95398"
   width="3.852"
   height="28.542999"
   id="rect1"
   style="fill:#ffffff" />
<polygon
   points="352.604,765.946 352.604,743.951 356.379,743.951 356.379,772.494 352.797,772.494 336.156,749.651 336.156,772.494 332.381,772.494 332.381,743.951 336.618,743.951 "
   id="polygon2"
   transform="translate(-201.794,-424.99701)"
   style="fill:#ffffff" />
<polygon
   points="385.378,747.688 385.378,743.951 406.872,743.951 406.872,747.342 389.692,768.912 407.296,768.912 407.296,772.494 384.723,772.494 384.723,769.413 401.98,747.688 "
   id="polygon3"
   transform="translate(-201.794,-424.99701)"
   style="fill:#ffffff" />
<path
   d="m 242.592,318.76199 h 3.967 l 11.441,28.736 h -4.007 l -2.349,-6.011 h -14.253 l -2.349,6.011 h -3.891 z m 7.665,19.143 -5.778,-14.483 -5.778,14.483 z"
   id="path3"
   style="fill:#ffffff" />
<path
   d="m 91.593,318.76199 h 3.967 l 11.441,28.736 h -4.007 l -2.349,-6.011 H 86.392 l -2.349,6.011 h -3.891 z m 7.665,19.143 -5.778,-14.483 -5.778,14.483 z"
   id="path4"
   style="fill:#ffffff" />
<g
   id="g11"
   transform="translate(-201.794,-424.99701)"
   style="fill:#ffffff">
	<defs
   id="defs4">
		<rect
   id="SVGID_1_"
   width="1200"
   height="1200"
   x="0"
   y="0" />
	</defs>
	<clipPath
   id="SVGID_2_">
		<use
   xlink:href="#SVGID_1_"
   overflow="visible"
   id="use4" />
	</clipPath>
	<path
   clip-path="url(#SVGID_2_)"
   d="m 484.556,769.49 1.964,-3.005 c 3.314,2.157 6.742,2.967 10.209,2.967 5.816,0 8.012,-1.504 8.012,-4.97 0,-3.544 -3.12,-4.122 -8.051,-4.93 -6.549,-1.079 -10.631,-2.196 -10.631,-8.128 0,-5.74 3.582,-7.937 10.708,-7.937 4.815,0 8.128,1.117 10.401,2.62 l -2.119,3.197 c -1.965,-1.311 -5.085,-2.235 -8.282,-2.235 -4.931,0 -6.857,1.271 -6.857,4.277 0,3.234 2.813,3.851 7.743,4.699 6.395,1.078 10.94,2.041 10.94,8.242 0,5.701 -3.505,8.59 -11.749,8.59 -4.661,0.002 -8.744,-0.999 -12.288,-3.387"
   id="path5"
   style="fill:#ffffff" />
	<polygon
   clip-path="url(#SVGID_2_)"
   points="577.296,743.951 586.501,758.164 595.786,743.951 599.831,743.951 588.39,761.632 588.39,772.494 584.538,772.494 584.538,761.709 573.059,743.951 "
   id="polygon5"
   style="fill:#ffffff" />
	<path
   clip-path="url(#SVGID_2_)"
   d="m 664.523,769.49 1.965,-3.005 c 3.313,2.157 6.741,2.967 10.208,2.967 5.816,0 8.013,-1.504 8.013,-4.97 0,-3.544 -3.12,-4.122 -8.052,-4.93 -6.548,-1.079 -10.632,-2.196 -10.632,-8.128 0,-5.74 3.583,-7.937 10.709,-7.937 4.815,0 8.128,1.117 10.4,2.62 l -2.118,3.197 c -1.965,-1.311 -5.084,-2.235 -8.282,-2.235 -4.931,0 -6.857,1.271 -6.857,4.277 0,3.234 2.813,3.851 7.743,4.699 6.396,1.078 10.94,2.041 10.94,8.242 0,5.701 -3.505,8.59 -11.749,8.59 -4.661,0.002 -8.744,-0.999 -12.288,-3.387"
   id="path6"
   style="fill:#ffffff" />
	<polygon
   clip-path="url(#SVGID_2_)"
   points="736.858,747.688 721.22,747.688 721.22,755.894 736.474,755.894 736.474,759.591 721.22,759.591 721.22,768.912 737.014,768.912 737.014,772.494 717.33,772.494 717.33,743.951 736.858,743.951 "
   id="polygon6"
   style="fill:#ffffff" />
	<path
   clip-path="url(#SVGID_2_)"
   d="m 763.894,758.203 c 0,-10.285 5.162,-14.715 14.407,-14.715 5.546,0 8.744,1.733 10.709,3.697 l -2.774,2.852 c -1.732,-1.54 -3.929,-2.812 -7.935,-2.812 -7.127,0 -10.518,3.581 -10.518,11.017 0,7.55 2.736,11.21 10.479,11.21 7.088,0 8.783,-2.852 8.783,-8.513 v -0.81 h -9.206 v -3.468 h 13.058 v 3.583 c 0,7.858 -2.311,12.673 -12.788,12.673 -10.479,10e-4 -14.215,-5.045 -14.215,-14.714"
   id="path7"
   style="fill:#ffffff" />
	<path
   clip-path="url(#SVGID_2_)"
   d="m 818.624,762.018 v -18.066 h 3.892 v 17.604 c 0,4.661 1.426,7.781 8.242,7.781 6.857,0 8.398,-3.043 8.398,-7.781 v -17.604 h 3.775 v 18.066 c 0,5.623 -1.579,10.977 -12.212,10.977 -10.63,-10e-4 -12.095,-5.392 -12.095,-10.977"
   id="path8"
   style="fill:#ffffff" />
	<path
   clip-path="url(#SVGID_2_)"
   d="m 884.45,761.517 h -7.974 v 10.978 h -3.813 V 743.95 h 12.712 c 7.241,0 10.015,3.043 10.015,8.63 0,4.622 -1.965,7.78 -6.896,8.667 l 6.472,11.247 h -4.161 z m 0.886,-3.583 c 3.89,0 6.125,-1.117 6.125,-5.2 0,-4.083 -2.158,-5.162 -6.24,-5.162 h -8.744 v 10.362 z"
   id="path9"
   style="fill:#ffffff" />
	<path
   clip-path="url(#SVGID_2_)"
   d="m 921.925,758.203 c 0,-10.323 5.432,-14.715 14.56,-14.715 9.129,0 14.562,4.392 14.562,14.715 0,10.363 -5.433,14.753 -14.562,14.753 -9.129,0 -14.56,-4.39 -14.56,-14.753 m 25.23,0.077 c 0,-7.087 -3.235,-11.055 -10.671,-11.055 -7.434,0 -10.632,3.968 -10.632,11.055 0,7.088 3.198,11.055 10.632,11.055 7.436,0 10.671,-3.967 10.671,-11.055"
   id="path10"
   style="fill:#ffffff" />
	<path
   clip-path="url(#SVGID_2_)"
   d="m 976.963,769.49 1.965,-3.005 c 3.313,2.157 6.741,2.967 10.208,2.967 5.816,0 8.012,-1.504 8.012,-4.97 0,-3.544 -3.12,-4.122 -8.051,-4.93 -6.548,-1.079 -10.632,-2.196 -10.632,-8.128 0,-5.74 3.583,-7.937 10.709,-7.937 4.814,0 8.128,1.117 10.4,2.62 l -2.118,3.197 c -1.965,-1.311 -5.084,-2.235 -8.282,-2.235 -4.931,0 -6.857,1.271 -6.857,4.277 0,3.234 2.813,3.851 7.743,4.699 6.396,1.078 10.94,2.041 10.94,8.242 0,5.701 -3.505,8.59 -11.749,8.59 -4.661,0.002 -8.744,-0.999 -12.288,-3.387"
   id="path11"
   style="fill:#ffffff" />
</g>
<g
   id="g12"
   transform="translate(-201.794,-424.99701)"
   style="fill:#ffffff">
	<defs
   id="defs11">
		<polygon
   id="SVGID_3_"
   points="436.759,456.213 504.151,456.213 504.211,456.213 521.031,427.065 521.031,427.005 386.185,427.005 487.273,602.129 571.544,456.213 605.299,456.213 504.151,631.396 521.031,660.544 655.875,427.006 655.875,427.005 554.727,427.005 487.334,543.774 " />
	</defs>
	<clipPath
   id="SVGID_4_">
		<use
   xlink:href="#SVGID_3_"
   overflow="visible"
   id="use11" />
	</clipPath>
	
		<linearGradient
   id="SVGID_5_"
   gradientUnits="userSpaceOnUse"
   x1="0"
   y1="1200"
   x2="1"
   y2="1200"
   gradientTransform="matrix(14.5192,310.4874,-310.4874,14.5192,373096.13,-17086.951)">
		<stop
   offset="0"
   style="stop-color:#E73467"
   id="stop11" />
		<stop
   offset="1"
   style="stop-color:#6E1419"
   id="stop12" />
	</linearGradient>
	<polygon
   clip-path="url(#SVGID_4_)"
   fill="url(#SVGID_5_)"
   points="666.772,660.034 655.286,414.421 375.288,427.515 386.773,673.128 "
   id="polygon12"
   style="fill:#ffffff" />
</g>
<g
   id="g14"
   transform="translate(-201.794,-424.99701)"
   style="fill:#ffffff">
	<defs
   id="defs12">
		<polygon
   id="SVGID_6_"
   points="571.544,456.213 554.727,427.005 487.334,543.774 504.156,572.898 " />
	</defs>
	<clipPath
   id="SVGID_7_">
		<use
   xlink:href="#SVGID_6_"
   overflow="visible"
   id="use12" />
	</clipPath>
	
		<linearGradient
   id="SVGID_8_"
   gradientUnits="userSpaceOnUse"
   x1="0"
   y1="1199.999"
   x2="1"
   y2="1199.999"
   gradientTransform="matrix(-94.9332,158.5943,-158.5943,-94.9332,190909.41,114307.98)">
		<stop
   offset="0"
   style="stop-color:#E73467"
   id="stop13" />
		<stop
   offset="1"
   style="stop-color:#6E1419"
   id="stop14" />
	</linearGradient>
	<polygon
   clip-path="url(#SVGID_7_)"
   fill="url(#SVGID_8_)"
   points="549.33,610.009 635.837,465.49 509.548,389.895 423.041,534.413 "
   id="polygon14"
   style="fill:#ffffff" />
</g>
<g
   id="g16"
   transform="translate(-201.794,-424.99701)"
   style="fill:#ffffff">
	<defs
   id="defs14">
		<polygon
   id="SVGID_9_"
   points="504.152,456.213 504.211,456.213 521.03,427.065 521.03,427.007 521.03,427.005 419.891,427.005 436.759,456.213 " />
	</defs>
	<clipPath
   id="SVGID_10_">
		<use
   xlink:href="#SVGID_9_"
   overflow="visible"
   id="use14" />
	</clipPath>
	
		<linearGradient
   id="SVGID_11_"
   gradientUnits="userSpaceOnUse"
   x1="0"
   y1="1200"
   x2="1"
   y2="1200"
   gradientTransform="matrix(-90.4657,3.3506,-3.3506,-90.4657,4537.6294,108998.76)">
		<stop
   offset="0"
   style="stop-color:#E73467"
   id="stop15" />
		<stop
   offset="1"
   style="stop-color:#6E1419"
   id="stop16" />
	</linearGradient>
	<polygon
   clip-path="url(#SVGID_10_)"
   fill="url(#SVGID_11_)"
   points="420.029,459.954 522.11,456.173 520.892,423.264 418.811,427.045 "
   id="polygon16"
   style="fill:#ffffff" />
</g>
<g
   id="g18"
   transform="translate(-201.794,-424.99701)"
   style="fill:#ffffff">
	<defs
   id="defs16">
		<polygon
   id="SVGID_12_"
   points="521.03,660.544 639.01,456.213 605.299,456.213 504.152,631.396 " />
	</defs>
	<clipPath
   id="SVGID_13_">
		<use
   xlink:href="#SVGID_12_"
   overflow="visible"
   id="use16" />
	</clipPath>
	
		<linearGradient
   id="SVGID_14_"
   gradientUnits="userSpaceOnUse"
   x1="-0.0009765625"
   y1="1200"
   x2="0.99900001"
   y2="1200"
   gradientTransform="matrix(97.1669,-208.853,208.853,97.1669,-250102.94,-115932.41)">
		<stop
   offset="0"
   style="stop-color:#E73467"
   id="stop17" />
		<stop
   offset="1"
   style="stop-color:#6E1419"
   id="stop18" />
	</linearGradient>
	<polygon
   clip-path="url(#SVGID_13_)"
   fill="url(#SVGID_14_)"
   points="528.148,404.636 426.004,624.187 615.014,712.121 717.158,492.571 "
   id="polygon18"
   style="fill:#ffffff" />
</g>
<g
   id="g20"
   transform="translate(-201.794,-424.99701)"
   style="fill:#ffffff">
	<defs
   id="defs18">
		<path
   id="SVGID_15_"
   d="m 684.013,425.34 -18.339,31.562 c 8.685,-2.692 17.909,-4.144 27.466,-4.144 24.818,0 48.151,9.664 65.7,27.214 l 19.63,-19.63 c -22.793,-22.792 -53.097,-35.345 -85.33,-35.345 -3.07,0 -6.113,0.117 -9.127,0.343" />
	</defs>
	<clipPath
   id="SVGID_16_">
		<use
   xlink:href="#SVGID_15_"
   overflow="visible"
   id="use18" />
	</clipPath>
	
		<linearGradient
   id="SVGID_17_"
   gradientUnits="userSpaceOnUse"
   x1="0"
   y1="1200"
   x2="1"
   y2="1200"
   gradientTransform="matrix(112.7963,0,0,-112.7963,665.6787,135808.02)">
		<stop
   offset="0"
   style="stop-color:#E73467"
   id="stop19" />
		<stop
   offset="1"
   style="stop-color:#6E1419"
   id="stop20" />
	</linearGradient>
	<rect
   x="665.67401"
   y="424.99701"
   clip-path="url(#SVGID_16_)"
   fill="url(#SVGID_17_)"
   width="112.796"
   height="54.974998"
   id="rect20"
   style="fill:#ffffff" />
</g>
<g
   id="g22"
   transform="translate(-201.794,-424.99701)"
   style="fill:#ffffff">
	<defs
   id="defs20">
		<path
   id="SVGID_18_"
   d="m 785.011,559.604 c -6.742,44.648 -45.371,78.981 -91.871,78.981 -44.335,0 -81.512,-31.217 -90.719,-72.823 l -18.332,31.549 c 19.387,40.775 60.979,69.034 109.051,69.034 61.829,0 112.936,-46.741 119.865,-106.741 z" />
	</defs>
	<clipPath
   id="SVGID_19_">
		<use
   xlink:href="#SVGID_18_"
   overflow="visible"
   id="use20" />
	</clipPath>
	
		<linearGradient
   id="SVGID_20_"
   gradientUnits="userSpaceOnUse"
   x1="-0.00048828131"
   y1="1199.999"
   x2="0.99949998"
   y2="1199.999"
   gradientTransform="matrix(228.9161,0,0,-228.9161,584.0674,275312.31)">
		<stop
   offset="0"
   style="stop-color:#E73467"
   id="stop21" />
		<stop
   offset="1"
   style="stop-color:#6E1419"
   id="stop22" />
	</linearGradient>
	<rect
   x="584.08899"
   y="559.604"
   clip-path="url(#SVGID_19_)"
   fill="url(#SVGID_20_)"
   width="228.916"
   height="106.741"
   id="rect22"
   style="fill:#ffffff" />
</g>
<g
   id="g24"
   transform="translate(-201.794,-424.99701)"
   style="fill:#ffffff">
	<defs
   id="defs22">
		<path
   id="SVGID_21_"
   d="m 693.14,531.791 v 27.761 h 91.88 c -0.003,0.017 -0.007,0.034 -0.009,0.052 h 27.994 c 0.528,-4.573 0.81,-9.22 0.81,-13.933 v -13.88 z" />
	</defs>
	<clipPath
   id="SVGID_22_">
		<use
   xlink:href="#SVGID_21_"
   overflow="visible"
   id="use22" />
	</clipPath>
	
		<linearGradient
   id="SVGID_23_"
   gradientUnits="userSpaceOnUse"
   x1="0"
   y1="1200"
   x2="1"
   y2="1200"
   gradientTransform="matrix(120.6738,0,0,-120.6738,693.1406,145354.3)">
		<stop
   offset="0"
   style="stop-color:#6E1419"
   id="stop23" />
		<stop
   offset="1"
   style="stop-color:#E73467"
   id="stop24" />
	</linearGradient>
	<rect
   x="693.14001"
   y="531.79102"
   clip-path="url(#SVGID_22_)"
   fill="url(#SVGID_23_)"
   width="120.675"
   height="27.813"
   id="rect24"
   style="fill:#ffffff" />
</g>
</svg>
