<?xml version="1.0" encoding="UTF-8"?><svg id="a" xmlns="http://www.w3.org/2000/svg" xmlns:xlink="http://www.w3.org/1999/xlink" viewBox="0 0 998.48 219.39"><defs><style>.d{fill:url(#c);}.e{fill:url(#b);}.f{fill:#d8dee9;}</style><linearGradient id="b" x1="62.75" y1="213.09" x2="113.69" y2="45.88" gradientTransform="matrix(1, 0, 0, 1, 0, 0)" gradientUnits="userSpaceOnUse"><stop offset="0" stop-color="#fff" stop-opacity=".3"/><stop offset=".56" stop-color="#fff" stop-opacity=".14"/><stop offset="1" stop-color="#fff" stop-opacity="0"/></linearGradient><linearGradient id="c" x1="15341.25" y1="-2367.72" x2="15392.18" y2="-2534.92" gradientTransform="translate(15536.98 -2361.42) rotate(-180)" xlink:href="#b"/></defs><g><path class="f" d="M301.53,72.61c0-2.28,1.56-4.25,3.77-4.78,3.67-.89,8.01-1.73,13.03-2.52,6.86-1.09,14.06-1.63,21.6-1.63s14.03,1,19.11,3c5.08,2,9.11,4.83,12.08,8.49,2.97,3.66,5.08,8,6.34,13.03,1.26,5.03,1.89,10.63,1.89,16.8v46.01c0,2.71-2.2,4.91-4.91,4.91h-15.72c-2.71,0-4.91-2.2-4.91-4.91v-42.92c0-8.23-1.09-14.06-3.26-17.49-2.17-3.43-6.23-5.14-12.17-5.14-1.83,0-3.77,.09-5.83,.26-2.06,.17-3.89,.37-5.49,.6v64.69c0,2.71-2.2,4.91-4.91,4.91h-15.72c-2.71,0-4.91-2.2-4.91-4.91V72.61Z"/><path class="f" d="M479.45,149.69c0,1.88-1.27,3.52-3.09,3.97-3.81,.95-8.38,1.84-13.71,2.69-6.86,1.09-14.06,1.63-21.6,1.63s-14.03-1.03-19.11-3.09c-5.09-2.06-9.11-4.94-12.08-8.66-2.97-3.71-5.09-8.14-6.34-13.29-1.26-5.14-1.89-10.8-1.89-16.97v-46.14c0-2.26,1.83-4.09,4.09-4.09h17.35c2.26,0,4.09,1.83,4.09,4.09v43.05c0,8.23,1.08,14.17,3.26,17.83,2.17,3.66,6.23,5.49,12.17,5.49,1.83,0,3.77-.09,5.83-.26,2.06-.17,3.88-.37,5.48-.6V69.83c0-2.26,1.83-4.09,4.09-4.09h17.35c2.26,0,4.09,1.83,4.09,4.09v79.86Z"/><path class="f" d="M587.27,110.83c0,7.2-1.06,13.72-3.17,19.54-2.12,5.83-5.17,10.8-9.17,14.92-4,4.11-8.91,7.29-14.74,9.52-5.83,2.23-12.46,3.34-19.88,3.34-3.09,0-6.32-.14-9.68-.43-3.37-.29-6.68-.66-9.94-1.11-3.26-.46-6.37-1-9.34-1.63-1.72-.36-3.33-.74-4.82-1.12-1.81-.47-3.06-2.1-3.06-3.96V30.48c0-2.01,1.46-3.72,3.44-4.04l17.35-2.8c2.49-.4,4.74,1.52,4.74,4.04v40.11c2.86-1.26,5.83-2.23,8.91-2.91,3.09-.69,6.4-1.03,9.94-1.03,6.4,0,12.05,1.11,16.97,3.34,4.91,2.23,9.03,5.4,12.34,9.52,3.31,4.11,5.83,9.06,7.54,14.83,1.71,5.77,2.57,12.2,2.57,19.29Zm-26.05-.69c0-16.46-6.06-24.69-18.17-24.69-2.63,0-5.23,.34-7.8,1.03s-4.66,1.54-6.26,2.57v46.46c1.26,.23,2.86,.43,4.8,.6,1.94,.17,4.05,.26,6.34,.26,6.97,0,12.23-2.4,15.77-7.2,3.54-4.8,5.31-11.14,5.31-19.03Z"/><path class="f" d="M602.69,111.51c0-8,1.23-15,3.69-21,2.46-6,5.68-11,9.68-15,4-4,8.6-7.03,13.8-9.09,5.2-2.06,10.54-3.09,16.03-3.09,12.8,0,22.91,3.92,30.34,11.74,7.43,7.83,11.14,19.35,11.14,34.55,0,1.49-.06,3.12-.17,4.89l-.06,.89c-.14,2.15-1.93,3.83-4.08,3.83h-48.81c-3.02,0-5,3.15-3.69,5.87s3.16,4.81,5.74,6.65c4.34,3.09,10.17,4.63,17.48,4.63,4.68,0,9.28-.43,13.8-1.29,2.48-.47,4.71-1,6.69-1.59,2.35-.7,4.77,.85,5.17,3.27l2.1,12.69c.32,1.96-.8,3.87-2.68,4.53-.7,.25-1.46,.49-2.28,.74-2.29,.69-4.83,1.29-7.63,1.8-2.8,.51-5.8,.94-9,1.29-3.2,.34-6.4,.51-9.6,.51-8.11,0-15.17-1.2-21.17-3.6-6-2.4-10.97-5.68-14.91-9.86-3.94-4.17-6.86-9.11-8.74-14.83-1.89-5.71-2.83-11.89-2.83-18.52Zm59.99-9.77c-.12-2.17-.49-4.29-1.11-6.34-.63-2.06-1.6-3.88-2.91-5.49-1.32-1.6-2.97-2.91-4.97-3.94-2-1.03-4.49-1.54-7.46-1.54s-5.31,.49-7.37,1.46c-2.06,.97-3.77,2.26-5.14,3.86-1.37,1.6-2.43,3.46-3.17,5.57l-2.26,6.43h34.4Z"/><path class="f" d="M709.67,42.72l17.35-2.8c2.49-.4,4.74,1.52,4.74,4.04v21.77h26.59c2.26,0,4.09,1.83,4.09,4.09v13.07c0,2.26-1.83,4.09-4.09,4.09h-26.59v31.72c0,5.37,.94,9.66,2.83,12.86,1.89,3.2,5.68,4.8,11.4,4.8,2.74,0,5.57-.26,8.48-.77,1.31-.23,2.57-.5,3.77-.81,2.29-.59,4.6,.9,5.02,3.24l2.16,11.96c.36,2.01-.81,3.96-2.74,4.62-2.17,.74-4.48,1.41-6.93,2-3.77,.91-8.4,1.37-13.88,1.37-6.97,0-12.74-.94-17.31-2.83-4.57-1.89-8.23-4.51-10.97-7.89-2.74-3.37-4.66-7.46-5.74-12.26-1.09-4.8-1.63-10.12-1.63-15.94V46.76c0-2.01,1.46-3.72,3.44-4.04Z"/><path class="f" d="M811.13,39.68c0,4.69-1.52,8.37-4.54,11.06-3.03,2.69-6.6,4.03-10.71,4.03s-7.69-1.34-10.71-4.03c-3.03-2.68-4.54-6.37-4.54-11.06s1.51-8.37,4.54-11.06c3.03-2.68,6.6-4.03,10.71-4.03s7.68,1.34,10.71,4.03c3.03,2.69,4.54,6.37,4.54,11.06Zm-6.49,116.24h-17.35c-2.26,0-4.09-1.83-4.09-4.09V69.83c0-2.26,1.83-4.09,4.09-4.09h17.35c2.26,0,4.09,1.83,4.09,4.09v81.99c0,2.26-1.83,4.09-4.09,4.09Z"/><path class="f" d="M828.44,110.83c0-6.51,1.06-12.66,3.17-18.43,2.11-5.77,5.17-10.8,9.17-15.09,4-4.29,8.85-7.69,14.57-10.2,5.71-2.51,12.23-3.77,19.54-3.77,4.8,0,9.2,.43,13.2,1.29,2.79,.6,5.52,1.38,8.2,2.33,1.98,.71,3.07,2.84,2.54,4.88l-3.29,12.63c-.59,2.25-2.92,3.55-5.15,2.88-1.23-.37-2.51-.71-3.84-1.03-2.86-.69-6.06-1.03-9.6-1.03-7.54,0-13.17,2.34-16.88,7.03-3.72,4.69-5.57,10.86-5.57,18.52,0,8.12,1.74,14.4,5.23,18.86,3.48,4.46,9.57,6.69,18.26,6.69,3.09,0,6.4-.28,9.94-.86,1.9-.31,3.72-.71,5.45-1.21,2.33-.68,4.73,.85,5.14,3.24l2.2,12.8c.35,2.02-.85,3.96-2.8,4.6-2.27,.74-4.86,1.41-7.77,2.01-4.46,.91-9.37,1.37-14.74,1.37-8.23,0-15.31-1.23-21.25-3.69-5.94-2.46-10.83-5.8-14.66-10.03-3.83-4.23-6.63-9.23-8.4-15-1.77-5.77-2.66-12.03-2.66-18.77Z"/><path class="f" d="M998.48,110.65c0,7.09-1.03,13.57-3.09,19.46-2.06,5.89-5.03,10.92-8.91,15.09-3.89,4.17-8.54,7.4-13.97,9.69-5.43,2.29-11.51,3.43-18.26,3.43s-12.66-1.14-18.08-3.43c-5.43-2.28-10.09-5.51-13.97-9.69-3.89-4.17-6.92-9.2-9.08-15.09-2.17-5.89-3.26-12.37-3.26-19.46s1.11-13.54,3.34-19.37c2.23-5.83,5.31-10.8,9.26-14.92,3.94-4.11,8.63-7.31,14.06-9.6,5.43-2.29,11.34-3.43,17.74-3.43s12.48,1.14,17.91,3.43c5.43,2.29,10.08,5.49,13.97,9.6,3.88,4.11,6.91,9.09,9.08,14.92,2.17,5.83,3.26,12.29,3.26,19.37Zm-26.05,0c0-7.89-1.57-14.09-4.71-18.6-3.14-4.51-7.63-6.77-13.46-6.77s-10.34,2.26-13.54,6.77c-3.2,4.52-4.8,10.72-4.8,18.6s1.6,14.14,4.8,18.77c3.2,4.63,7.71,6.94,13.54,6.94s10.31-2.31,13.46-6.94c3.14-4.63,4.71-10.89,4.71-18.77Z"/></g><g><g><path class="f" d="M185.46,118.44c-8.15,8.15-21.36,8.15-29.5,0l-35.4-35.4c-18.01-18.01-47.33-18.01-65.34,0-18.01,18.01-18.01,47.33,0,65.34l35.4,35.4c8.15,8.15,8.15,21.36,0,29.5-8.15,8.15-21.36,8.15-29.5,0l-35.4-35.4c-34.28-34.28-34.28-90.06,0-124.34,34.28-34.28,90.06-34.28,124.35,0l35.4,35.4c8.15,8.15,8.15,21.36,0,29.5Z"/><path class="e" d="M150.06,53.53l35.4,35.4c8.06,8.06,8.14,21.06,.27,29.22l-50.11-50.11c-26.34-26.34-69.07-26.34-95.41,0-13.17,13.17-19.76,30.44-19.76,47.7,0,17.27,6.59,34.53,19.76,47.7l50.11,50.11c-8.16,7.87-21.16,7.77-29.21-.28l-35.4-35.4c-34.29-34.29-34.28-90.06,0-124.34,34.29-34.29,90.06-34.29,124.35,0Z"/></g><g><path class="f" d="M73.02,100.95c8.15-8.15,21.36-8.15,29.5,0l35.4,35.4c18.01,18.01,47.33,18.01,65.34,0,18.01-18.01,18.01-47.33,0-65.34l-35.4-35.4c-8.15-8.15-8.15-21.36,0-29.5,8.15-8.15,21.36-8.15,29.5,0l35.4,35.4c34.28,34.28,34.28,90.06,0,124.34-34.28,34.28-90.06,34.28-124.35,0l-35.4-35.4c-8.15-8.15-8.15-21.36,0-29.5Z"/><path class="d" d="M108.42,165.86l-35.4-35.4c-8.06-8.06-8.14-21.06-.27-29.22l50.11,50.11c26.34,26.34,69.07,26.34,95.41,0,13.17-13.17,19.76-30.44,19.76-47.7,0-17.27-6.59-34.53-19.76-47.7L168.16,5.84c8.16-7.87,21.16-7.77,29.21,.28l35.4,35.4c34.29,34.29,34.28,90.06,0,124.34-34.29,34.29-90.06,34.29-124.35,0Z"/></g></g></svg>