<?xml version="1.0" encoding="UTF-8" standalone="no"?>
<!-- Created with Inkscape (http://www.inkscape.org/) -->

<svg
   width="121.535mm"
   height="121.535mm"
   viewBox="0 0 121.535 121.53501"
   version="1.1"
   id="svg1"
   inkscape:version="1.3.2 (091e20e, 2023-11-25, custom)"
   sodipodi:docname="gcc_w.svg"
   xmlns:inkscape="http://www.inkscape.org/namespaces/inkscape"
   xmlns:sodipodi="http://sodipodi.sourceforge.net/DTD/sodipodi-0.dtd"
   xmlns="http://www.w3.org/2000/svg"
   xmlns:svg="http://www.w3.org/2000/svg">
  <sodipodi:namedview
     id="namedview1"
     pagecolor="#ffffff"
     bordercolor="#000000"
     borderopacity="0.25"
     inkscape:showpageshadow="2"
     inkscape:pageopacity="0.0"
     inkscape:pagecheckerboard="0"
     inkscape:deskcolor="#d1d1d1"
     inkscape:document-units="mm"
     inkscape:zoom="0.73139029"
     inkscape:cx="151.76576"
     inkscape:cy="384.88343"
     inkscape:window-width="1920"
     inkscape:window-height="1017"
     inkscape:window-x="1912"
     inkscape:window-y="-8"
     inkscape:window-maximized="1"
     inkscape:current-layer="layer1" />
  <defs
     id="defs1">
    <clipPath
       clipPathUnits="userSpaceOnUse"
       id="clipPath4">
      <path
         d="M 0,612 H 792 V 0 H 0 Z"
         transform="translate(-368.92821,-372.99371)"
         id="path4" />
    </clipPath>
    <clipPath
       clipPathUnits="userSpaceOnUse"
       id="clipPath6">
      <path
         d="M 0,612 H 792 V 0 H 0 Z"
         transform="translate(-491.07321,-402.59671)"
         id="path6" />
    </clipPath>
    <clipPath
       clipPathUnits="userSpaceOnUse"
       id="clipPath8">
      <path
         d="M 0,612 H 792 V 0 H 0 Z"
         id="path8" />
    </clipPath>
    <clipPath
       clipPathUnits="userSpaceOnUse"
       id="clipPath10">
      <path
         d="M 0,612 H 792 V 0 H 0 Z"
         id="path10" />
    </clipPath>
    <clipPath
       clipPathUnits="userSpaceOnUse"
       id="clipPath12">
      <path
         d="M 0,612 H 792 V 0 H 0 Z"
         id="path12" />
    </clipPath>
    <clipPath
       clipPathUnits="userSpaceOnUse"
       id="clipPath14">
      <path
         d="M 0,612 H 792 V 0 H 0 Z"
         id="path14" />
    </clipPath>
    <clipPath
       clipPathUnits="userSpaceOnUse"
       id="clipPath16">
      <path
         d="M 0,612 H 792 V 0 H 0 Z"
         transform="translate(-454.57321,-344.33011)"
         id="path16" />
    </clipPath>
    <clipPath
       clipPathUnits="userSpaceOnUse"
       id="clipPath18">
      <path
         d="M 0,612 H 792 V 0 H 0 Z"
         id="path18" />
    </clipPath>
    <clipPath
       clipPathUnits="userSpaceOnUse"
       id="clipPath20">
      <path
         d="M 0,612 H 792 V 0 H 0 Z"
         transform="translate(-330.50681,-237.49611)"
         id="path20" />
    </clipPath>
    <clipPath
       clipPathUnits="userSpaceOnUse"
       id="clipPath22">
      <path
         d="M 0,612 H 792 V 0 H 0 Z"
         transform="translate(-346.75631,-239.248)"
         id="path22" />
    </clipPath>
    <clipPath
       clipPathUnits="userSpaceOnUse"
       id="clipPath24">
      <path
         d="M 0,612 H 792 V 0 H 0 Z"
         transform="translate(-359.37741,-248.53521)"
         id="path24" />
    </clipPath>
    <clipPath
       clipPathUnits="userSpaceOnUse"
       id="clipPath26">
      <path
         d="M 0,612 H 792 V 0 H 0 Z"
         transform="translate(-380.09281,-237.52731)"
         id="path26" />
    </clipPath>
    <clipPath
       clipPathUnits="userSpaceOnUse"
       id="clipPath28">
      <path
         d="M 0,612 H 792 V 0 H 0 Z"
         transform="translate(-393.52001,-246.76761)"
         id="path28" />
    </clipPath>
    <clipPath
       clipPathUnits="userSpaceOnUse"
       id="clipPath30">
      <path
         d="M 0,612 H 792 V 0 H 0 Z"
         transform="translate(-410.24321,-243.15621)"
         id="path30" />
    </clipPath>
    <clipPath
       clipPathUnits="userSpaceOnUse"
       id="clipPath32">
      <path
         d="M 0,612 H 792 V 0 H 0 Z"
         transform="translate(-425.86331,-237.51171)"
         id="path32" />
    </clipPath>
    <clipPath
       clipPathUnits="userSpaceOnUse"
       id="clipPath34">
      <path
         d="M 0,612 H 792 V 0 H 0 Z"
         transform="translate(-442.85741,-237.49611)"
         id="path34" />
    </clipPath>
    <clipPath
       clipPathUnits="userSpaceOnUse"
       id="clipPath36">
      <path
         d="M 0,612 H 792 V 0 H 0 Z"
         transform="translate(-456.56451,-246.76761)"
         id="path36" />
    </clipPath>
    <clipPath
       clipPathUnits="userSpaceOnUse"
       id="clipPath38">
      <path
         d="M 0,612 H 792 V 0 H 0 Z"
         transform="translate(-473.80661,-239.248)"
         id="path38" />
    </clipPath>
    <clipPath
       clipPathUnits="userSpaceOnUse"
       id="clipPath40">
      <path
         d="M 0,612 H 792 V 0 H 0 Z"
         transform="translate(-491.11911,-243.15621)"
         id="path40" />
    </clipPath>
    <clipPath
       clipPathUnits="userSpaceOnUse"
       id="clipPath42">
      <path
         d="M 0,612 H 792 V 0 H 0 Z"
         transform="translate(-508.86331,-241.99221)"
         id="path42" />
    </clipPath>
    <clipPath
       clipPathUnits="userSpaceOnUse"
       id="clipPath44">
      <path
         d="M 0,612 H 792 V 0 H 0 Z"
         transform="translate(-290.9404,-244.91601)"
         id="path44" />
    </clipPath>
    <clipPath
       clipPathUnits="userSpaceOnUse"
       id="clipPath46">
      <path
         d="M 0,612 H 792 V 0 H 0 Z"
         transform="translate(-346.83251,-294.05271)"
         id="path46" />
    </clipPath>
    <clipPath
       clipPathUnits="userSpaceOnUse"
       id="clipPath48">
      <path
         d="M 0,612 H 792 V 0 H 0 Z"
         transform="translate(-436.20211,-282.78121)"
         id="path48" />
    </clipPath>
    <clipPath
       clipPathUnits="userSpaceOnUse"
       id="clipPath50">
      <path
         d="M 0,612 H 792 V 0 H 0 Z"
         transform="translate(-512.60351,-282.78121)"
         id="path50" />
    </clipPath>
  </defs>
  <g
     inkscape:label="Capa 1"
     inkscape:groupmode="layer"
     id="layer1"
     transform="translate(-64.641397,-47.139145)">
    <g
       id="g50"
       transform="matrix(0.26458333,0,0,0.26458333,-21.021008,3.3076339)"
       style="fill:#ffffff">
      <path
         id="path1"
         d="M 0,0 -134.048,-78.498 -268.225,0.26 v 87.212 h -0.031 l 0.078,65.935 134.114,78.555 L 0,153.304 V 87.472 Z M 16.126,87.472 16.11,160.759 -134.064,248.593 -283.03,160.787 V 87.472 l -0.45,-94.728 149.432,-88.66 149.734,88.123 z"
         style="fill:#ffffff;fill-opacity:1;fill-rule:nonzero;stroke:none"
         transform="matrix(1.3333333,0,0,-1.3333333,731.67187,497.11973)" />
      <path
         id="path2"
         d="M 0,0 0.12,-5.195 H -2.999 Z"
         style="fill:#ffffff;fill-opacity:1;fill-rule:nonzero;stroke:none"
         transform="matrix(1.3333333,0,0,-1.3333333,605.81907,353.20053)" />
      <path
         id="path3"
         d="m 0,0 6.958,11.61 -35.212,18.754 c -0.047,0.026 -0.092,0.058 -0.14,0.074 l -0.046,0.025 -0.032,-0.011 c -0.073,0.017 -0.146,0.041 -0.219,0.038 -0.18,-0.01 -0.368,-0.097 -0.538,-0.26 -0.166,-0.159 -0.31,-0.372 -0.43,-0.627 l -37.533,-60.682 h 4.347 l 34.212,55.302 22.008,-35.58 2.632,4.947 z"
         style="fill:#ffffff;fill-opacity:1;fill-rule:nonzero;stroke:none"
         transform="matrix(1.3333333,0,0,-1.3333333,491.90427,318.67507)"
         clip-path="url(#clipPath4)" />
      <path
         id="path5"
         d="M 0,0 C -0.119,0.256 -0.264,0.469 -0.427,0.627 -0.598,0.79 -0.785,0.878 -0.968,0.887 -1.045,0.891 -1.123,0.867 -1.201,0.846 L -1.242,0.86 -1.301,0.829 C -1.303,0.828 -1.304,0.827 -1.305,0.827 l -35.4,-18.871 v -37.989 l 0.117,-2.873 1.447,-1.618 34.119,55.144 34.211,-55.302 h 4.347 z"
         style="fill:#ffffff;fill-opacity:1;fill-rule:nonzero;stroke:none"
         transform="matrix(1.3333333,0,0,-1.3333333,654.76427,279.2044)"
         clip-path="url(#clipPath6)" />
      <path
         id="path7"
         d="m 402.571,375.978 h -8.867 v 8.868 h 8.867 z"
         style="fill:#ffffff;fill-opacity:1;fill-rule:nonzero;stroke:none"
         transform="matrix(1.3333333,0,0,-1.3333333,0,816)"
         clip-path="url(#clipPath8)" />
      <path
         id="path9"
         d="m 413.215,375.978 h -8.869 v 8.868 h 8.869 z"
         style="fill:#ffffff;fill-opacity:1;fill-rule:nonzero;stroke:none"
         transform="matrix(1.3333333,0,0,-1.3333333,0,816)"
         clip-path="url(#clipPath10)" />
      <path
         id="path11"
         d="m 402.571,365.483 h -8.867 v 8.867 h 8.867 z"
         style="fill:#ffffff;fill-opacity:1;fill-rule:nonzero;stroke:none"
         transform="matrix(1.3333333,0,0,-1.3333333,0,816)"
         clip-path="url(#clipPath12)" />
      <path
         id="path13"
         d="m 413.215,365.483 h -8.869 v 8.867 h 8.869 z"
         style="fill:#ffffff;fill-opacity:1;fill-rule:nonzero;stroke:none"
         transform="matrix(1.3333333,0,0,-1.3333333,0,816)"
         clip-path="url(#clipPath14)" />
      <path
         id="path15"
         d="m 0,0 v 40.016 l -49.913,42.955 c -0.113,0.179 -0.234,0.341 -0.369,0.47 -0.17,0.162 -0.349,0.251 -0.53,0.305 l -0.054,0.045 0.029,-0.039 c -0.066,0.018 -0.134,0.049 -0.201,0.053 -0.314,0.016 -0.632,-0.106 -0.925,-0.39 -0.209,-0.196 -0.393,-0.471 -0.549,-0.798 l -52.6,-85.032 h 6.089 l 47.907,77.444 47.908,-77.444 4.567,0.157 z"
         style="fill:#ffffff;fill-opacity:1;fill-rule:nonzero;stroke:none"
         transform="matrix(1.3333333,0,0,-1.3333333,606.0976,356.8932)"
         clip-path="url(#clipPath16)" />
      <path
         id="path17"
         d="M 289.941,341.171 H 539.41 v 1.651 H 289.941 Z"
         style="fill:#ffffff;fill-opacity:1;fill-rule:nonzero;stroke:none"
         transform="matrix(1.3333333,0,0,-1.3333333,0,816)"
         clip-path="url(#clipPath18)" />
      <path
         id="path19"
         d="m 0,0 c -0.796,0 -1.53,0.146 -2.202,0.434 -0.672,0.289 -1.255,0.685 -1.749,1.187 -0.494,0.5 -0.882,1.092 -1.163,1.775 -0.281,0.682 -0.421,1.411 -0.421,2.186 v 0.031 c 0,0.776 0.138,1.5 0.413,2.178 0.277,0.678 0.664,1.272 1.164,1.783 0.499,0.512 1.089,0.916 1.772,1.209 0.682,0.295 1.436,0.444 2.264,0.444 0.496,0 0.948,-0.043 1.356,-0.125 0.408,-0.082 0.783,-0.2 1.125,-0.35 0.34,-0.148 0.656,-0.328 0.945,-0.533 C 3.793,10.012 4.067,9.783 4.326,9.535 L 3.101,8.125 C 2.667,8.527 2.207,8.854 1.721,9.102 1.235,9.35 0.682,9.475 0.062,9.475 -0.455,9.475 -0.933,9.373 -1.372,9.172 -1.812,8.971 -2.191,8.695 -2.512,8.35 -2.833,8.004 -3.081,7.598 -3.256,7.133 -3.432,6.668 -3.52,6.172 -3.52,5.645 V 5.613 c 0,-0.527 0.088,-1.027 0.264,-1.496 0.175,-0.471 0.423,-0.883 0.744,-1.232 0.321,-0.352 0.7,-0.629 1.14,-0.83 0.439,-0.201 0.917,-0.303 1.434,-0.303 0.662,0 1.23,0.127 1.706,0.381 0.475,0.252 0.945,0.596 1.411,1.029 L 4.403,1.922 C 4.125,1.623 3.832,1.357 3.527,1.125 3.223,0.891 2.894,0.689 2.543,0.52 2.191,0.35 1.806,0.219 1.388,0.131 0.969,0.045 0.506,0 0,0"
         style="fill:#ffffff;fill-opacity:1;fill-rule:nonzero;stroke:none"
         transform="matrix(1.3333333,0,0,-1.3333333,440.67573,499.33853)"
         clip-path="url(#clipPath20)" />
      <path
         id="path21"
         d="M 0,0 C 0.535,0 1.026,0.102 1.474,0.303 1.922,0.504 2.305,0.777 2.625,1.125 2.943,1.471 3.193,1.877 3.373,2.342 3.553,2.807 3.644,3.303 3.644,3.83 V 3.861 C 3.644,4.389 3.553,4.887 3.373,5.357 3.193,5.828 2.941,6.236 2.617,6.582 2.292,6.928 1.904,7.205 1.451,7.412 0.998,7.619 0.504,7.723 -0.031,7.723 -0.566,7.723 -1.058,7.621 -1.506,7.42 -1.954,7.219 -2.337,6.943 -2.656,6.598 -2.975,6.252 -3.225,5.846 -3.405,5.381 -3.585,4.916 -3.675,4.42 -3.675,3.893 V 3.861 c 0,-0.527 0.09,-1.027 0.27,-1.496 0.18,-0.47 0.433,-0.879 0.757,-1.224 0.324,-0.348 0.712,-0.623 1.166,-0.83 C -1.03,0.104 -0.536,0 0,0 m -0.031,-1.752 c -0.838,0 -1.603,0.147 -2.295,0.441 -0.693,0.295 -1.287,0.696 -1.783,1.202 C -4.605,0.398 -4.993,0.99 -5.272,1.666 -5.551,2.344 -5.69,3.064 -5.69,3.83 v 0.031 c 0,0.764 0.139,1.487 0.418,2.162 0.279,0.678 0.672,1.272 1.178,1.784 0.507,0.511 1.106,0.918 1.799,1.216 C -1.603,9.324 -0.837,9.475 0,9.475 0.837,9.475 1.602,9.326 2.294,9.031 2.987,8.738 3.582,8.336 4.078,7.83 4.574,7.324 4.961,6.732 5.241,6.055 5.52,5.377 5.659,4.656 5.659,3.893 V 3.861 C 5.659,3.096 5.52,2.375 5.241,1.697 4.961,1.021 4.568,0.426 4.062,-0.086 3.556,-0.598 2.956,-1.002 2.264,-1.303 1.571,-1.602 0.806,-1.752 -0.031,-1.752"
         style="fill:#ffffff;fill-opacity:1;fill-rule:nonzero;stroke:none"
         transform="matrix(1.3333333,0,0,-1.3333333,462.34173,497.00267)"
         clip-path="url(#clipPath22)" />
      <path
         id="path23"
         d="M 0,0 H 1.764 L 7.566,-7.504 V 0 H 9.458 V -10.854 H 7.864 l -5.972,7.723 v -7.723 H 0 Z"
         style="fill:#ffffff;fill-opacity:1;fill-rule:nonzero;stroke:none"
         transform="matrix(1.3333333,0,0,-1.3333333,479.16987,484.61973)"
         clip-path="url(#clipPath24)" />
      <path
         id="path25"
         d="m 0,0 c -0.837,0 -1.639,0.143 -2.403,0.426 -0.765,0.285 -1.473,0.72 -2.125,1.31 l 1.148,1.366 c 0.527,-0.457 1.059,-0.805 1.597,-1.047 0.537,-0.244 1.147,-0.366 1.829,-0.366 0.59,0 1.057,0.125 1.404,0.374 0.346,0.248 0.519,0.578 0.519,0.992 V 3.086 C 1.969,3.281 1.936,3.455 1.868,3.604 1.801,3.754 1.676,3.896 1.495,4.031 1.313,4.166 1.064,4.289 0.749,4.402 0.433,4.518 0.021,4.631 -0.487,4.744 c -0.58,0.135 -1.096,0.287 -1.547,0.457 -0.451,0.172 -0.829,0.377 -1.134,0.621 -0.306,0.242 -0.54,0.539 -0.7,0.891 -0.161,0.351 -0.241,0.775 -0.241,1.271 v 0.032 c 0,0.464 0.092,0.892 0.276,1.279 0.185,0.389 0.439,0.719 0.762,0.992 0.323,0.274 0.711,0.488 1.165,0.645 0.454,0.154 0.949,0.232 1.487,0.232 0.796,0 1.512,-0.117 2.148,-0.35 0.635,-0.232 1.232,-0.57 1.791,-1.015 L 2.496,8.357 C 2,8.719 1.509,8.996 1.023,9.188 0.537,9.377 0.046,9.473 -0.45,9.473 -1.008,9.473 -1.442,9.35 -1.752,9.102 -2.063,8.854 -2.217,8.549 -2.217,8.188 V 8.156 c 0,-0.207 0.036,-0.39 0.108,-0.552 C -2.036,7.445 -1.904,7.301 -1.712,7.172 -1.521,7.041 -1.256,6.92 -0.919,6.807 -0.583,6.693 -0.155,6.574 0.363,6.449 0.933,6.305 1.438,6.145 1.878,5.969 2.319,5.793 2.684,5.578 2.975,5.326 3.265,5.072 3.485,4.777 3.635,4.441 3.785,4.105 3.861,3.715 3.861,3.27 V 3.24 C 3.861,2.734 3.766,2.279 3.576,1.875 3.386,1.473 3.122,1.131 2.784,0.852 2.446,0.574 2.039,0.361 1.564,0.217 1.09,0.072 0.568,0 0,0"
         style="fill:#ffffff;fill-opacity:1;fill-rule:nonzero;stroke:none"
         transform="matrix(1.3333333,0,0,-1.3333333,506.7904,499.29693)"
         clip-path="url(#clipPath26)" />
      <path
         id="path27"
         d="M 0,0 H -3.442 V 1.768 H 5.365 V 0 H 1.922 V -9.086 H 0 Z"
         style="fill:#ffffff;fill-opacity:1;fill-rule:nonzero;stroke:none"
         transform="matrix(1.3333333,0,0,-1.3333333,524.69333,486.97653)"
         clip-path="url(#clipPath28)" />
      <path
         id="path29"
         d="M 0,0 C 0.685,0 1.229,0.162 1.633,0.49 2.037,0.816 2.239,1.26 2.239,1.82 V 1.852 C 2.239,2.443 2.042,2.893 1.647,3.199 1.254,3.506 0.7,3.658 -0.017,3.658 H -2.8 V 0 Z M -4.69,5.379 H 0.146 C 0.829,5.379 1.433,5.283 1.96,5.092 2.487,4.9 2.927,4.635 3.278,4.295 3.567,3.994 3.79,3.648 3.944,3.256 4.101,2.863 4.178,2.428 4.178,1.953 V 1.922 C 4.178,1.477 4.112,1.076 3.983,0.721 3.854,0.363 3.676,0.049 3.449,-0.225 3.222,-0.5 2.95,-0.732 2.635,-0.924 2.319,-1.115 1.972,-1.262 1.588,-1.365 l 2.931,-4.11 H 2.271 l -2.676,3.784 H -0.437 -2.8 v -3.784 h -1.89 z"
         style="fill:#ffffff;fill-opacity:1;fill-rule:nonzero;stroke:none"
         transform="matrix(1.3333333,0,0,-1.3333333,546.99093,491.79173)"
         clip-path="url(#clipPath30)" />
      <path
         id="path31"
         d="m 0,0 c -0.703,0 -1.338,0.102 -1.906,0.303 -0.57,0.201 -1.055,0.504 -1.459,0.906 -0.403,0.404 -0.713,0.902 -0.93,1.496 -0.217,0.596 -0.326,1.285 -0.326,2.07 v 6.248 h 1.892 V 4.854 c 0,-1.014 0.245,-1.784 0.733,-2.311 0.488,-0.527 1.164,-0.791 2.027,-0.791 0.853,0 1.524,0.254 2.011,0.76 0.489,0.506 0.734,1.261 0.734,2.263 v 6.248 H 4.667 V 4.869 C 4.667,4.061 4.557,3.354 4.333,2.744 4.112,2.135 3.8,1.625 3.396,1.217 2.993,0.809 2.505,0.504 1.931,0.303 1.356,0.102 0.714,0 0,0"
         style="fill:#ffffff;fill-opacity:1;fill-rule:nonzero;stroke:none"
         transform="matrix(1.3333333,0,0,-1.3333333,567.81773,499.31773)"
         clip-path="url(#clipPath32)" />
      <path
         id="path33"
         d="m 0,0 c -0.796,0 -1.53,0.146 -2.202,0.434 -0.672,0.289 -1.255,0.685 -1.749,1.187 -0.493,0.5 -0.881,1.092 -1.162,1.775 -0.282,0.682 -0.422,1.411 -0.422,2.186 v 0.031 c 0,0.776 0.139,1.5 0.414,2.178 0.275,0.678 0.663,1.272 1.163,1.783 0.499,0.512 1.09,0.916 1.771,1.209 0.683,0.295 1.437,0.444 2.264,0.444 0.496,0 0.948,-0.043 1.358,-0.125 0.408,-0.082 0.782,-0.2 1.124,-0.35 0.34,-0.148 0.656,-0.328 0.945,-0.533 0.29,-0.207 0.563,-0.436 0.822,-0.684 L 3.101,8.125 C 2.667,8.527 2.207,8.854 1.721,9.102 1.235,9.35 0.683,9.475 0.062,9.475 -0.455,9.475 -0.933,9.373 -1.372,9.172 -1.812,8.971 -2.191,8.695 -2.512,8.35 -2.832,8.004 -3.08,7.598 -3.256,7.133 -3.432,6.668 -3.52,6.172 -3.52,5.645 V 5.613 c 0,-0.527 0.088,-1.027 0.264,-1.496 0.176,-0.471 0.424,-0.883 0.744,-1.232 0.321,-0.352 0.7,-0.629 1.14,-0.83 0.439,-0.201 0.917,-0.303 1.434,-0.303 0.662,0 1.23,0.127 1.706,0.381 0.475,0.252 0.946,0.596 1.411,1.029 L 4.403,1.922 C 4.124,1.623 3.832,1.357 3.527,1.125 3.223,0.891 2.896,0.689 2.543,0.52 2.191,0.35 1.807,0.219 1.388,0.131 0.969,0.045 0.507,0 0,0"
         style="fill:#ffffff;fill-opacity:1;fill-rule:nonzero;stroke:none"
         transform="matrix(1.3333333,0,0,-1.3333333,590.47653,499.33853)"
         clip-path="url(#clipPath34)" />
      <path
         id="path35"
         d="M 0,0 H -3.442 V 1.768 H 5.364 V 0 H 1.923 V -9.086 H 0 Z"
         style="fill:#ffffff;fill-opacity:1;fill-rule:nonzero;stroke:none"
         transform="matrix(1.3333333,0,0,-1.3333333,608.75267,486.97653)"
         clip-path="url(#clipPath36)" />
      <path
         id="path37"
         d="M 0,0 C 0.535,0 1.026,0.102 1.475,0.303 1.922,0.504 2.306,0.777 2.624,1.125 2.943,1.471 3.193,1.877 3.373,2.342 3.554,2.807 3.644,3.303 3.644,3.83 v 0.031 c 0,0.528 -0.09,1.026 -0.271,1.496 C 3.193,5.828 2.94,6.236 2.616,6.582 2.292,6.928 1.903,7.205 1.451,7.412 0.998,7.619 0.504,7.723 -0.031,7.723 -0.566,7.723 -1.058,7.621 -1.506,7.42 -1.953,7.219 -2.337,6.943 -2.656,6.598 -2.975,6.252 -3.225,5.846 -3.405,5.381 -3.585,4.916 -3.675,4.42 -3.675,3.893 V 3.861 c 0,-0.527 0.09,-1.027 0.27,-1.496 0.18,-0.47 0.432,-0.879 0.757,-1.224 0.324,-0.348 0.712,-0.623 1.166,-0.83 C -1.029,0.104 -0.535,0 0,0 m -0.031,-1.752 c -0.837,0 -1.603,0.147 -2.295,0.441 -0.693,0.295 -1.287,0.696 -1.783,1.202 C -4.604,0.398 -4.993,0.99 -5.272,1.666 -5.551,2.344 -5.69,3.064 -5.69,3.83 v 0.031 c 0,0.764 0.139,1.487 0.418,2.162 0.279,0.678 0.671,1.272 1.178,1.784 0.507,0.511 1.107,0.918 1.799,1.216 C -1.603,9.324 -0.838,9.475 0,9.475 0.837,9.475 1.602,9.326 2.295,9.031 2.987,8.738 3.581,8.336 4.078,7.83 4.574,7.324 4.962,6.732 5.24,6.055 5.521,5.377 5.659,4.656 5.659,3.893 V 3.861 C 5.659,3.096 5.521,2.375 5.24,1.697 4.962,1.021 4.568,0.426 4.062,-0.086 3.556,-0.598 2.956,-1.002 2.264,-1.303 1.571,-1.602 0.806,-1.752 -0.031,-1.752"
         style="fill:#ffffff;fill-opacity:1;fill-rule:nonzero;stroke:none"
         transform="matrix(1.3333333,0,0,-1.3333333,631.74213,497.00267)"
         clip-path="url(#clipPath38)" />
      <path
         id="path39"
         d="M 0,0 C 0.684,0 1.229,0.162 1.633,0.49 2.037,0.816 2.239,1.26 2.239,1.82 V 1.852 C 2.239,2.443 2.042,2.893 1.648,3.199 1.254,3.506 0.699,3.658 -0.016,3.658 H -2.8 V 0 Z M -4.691,5.379 H 0.146 C 0.828,5.379 1.434,5.283 1.96,5.092 2.487,4.9 2.927,4.635 3.278,4.295 3.567,3.994 3.79,3.648 3.945,3.256 4.1,2.863 4.178,2.428 4.178,1.953 V 1.922 C 4.178,1.477 4.113,1.076 3.983,0.721 3.854,0.363 3.676,0.049 3.449,-0.225 3.222,-0.5 2.95,-0.732 2.635,-0.924 2.319,-1.115 1.971,-1.262 1.588,-1.365 l 2.931,-4.11 H 2.271 l -2.675,3.784 H -0.436 -2.8 v -3.784 h -1.891 z"
         style="fill:#ffffff;fill-opacity:1;fill-rule:nonzero;stroke:none"
         transform="matrix(1.3333333,0,0,-1.3333333,654.82547,491.79173)"
         clip-path="url(#clipPath40)" />
      <path
         id="path41"
         d="M 0,0 -1.876,4.342 -3.736,0 Z m -2.729,6.621 h 1.768 L 3.814,-4.311 H 1.799 l -1.102,2.622 h -5.132 l -1.116,-2.622 h -1.954 z"
         style="fill:#ffffff;fill-opacity:1;fill-rule:nonzero;stroke:none"
         transform="matrix(1.3333333,0,0,-1.3333333,678.4844,493.34373)"
         clip-path="url(#clipPath42)" />
      <path
         id="path43"
         d="M 0,0 123.734,-72.336 247.469,0 V 141.702 L 123.734,212.522 0,141.702 Z m 123.734,-74.652 -0.505,0.295 L -2,-1.148 v 144.01 l 0.503,0.287 125.231,71.678 0.497,-0.285 125.238,-71.68 V -1.148 l -0.495,-0.289 z"
         style="fill:#ffffff;fill-opacity:1;fill-rule:nonzero;stroke:none"
         transform="matrix(1.3333333,0,0,-1.3333333,387.92053,489.44533)"
         clip-path="url(#clipPath44)" />
      <path
         id="path45"
         d="M 0,0 H 17.356 C 17.157,-14.363 6.982,-23.84 -6.882,-23.84 c -15.162,0 -26.035,11.371 -26.035,26.932 0,15.362 10.873,27.131 26.035,27.032 8.179,0 16.158,-3.591 20.448,-10.673 h 1.197 c -4.489,7.78 -13.367,11.571 -21.645,11.571 -13.566,0 -27.132,-9.775 -27.132,-27.93 0,-18.155 13.566,-28.029 27.132,-27.928 14.164,0 25.335,10.174 25.335,24.836 V 1.098 H 0 Z M -6.882,38.9 C 7.182,38.801 21.845,31.52 25.236,14.165 H 7.681 c -2.893,5.984 -7.481,8.377 -14.563,8.377 -11.272,0 -17.356,-8.777 -17.356,-19.45 0,-11.571 6.782,-19.151 17.356,-19.151 7.181,0 11.77,1.895 14.962,8.579 H -6.783 V 7.979 H 26.233 C 26.632,0.998 26.632,-5.686 24.239,-12.469 19.251,-27.031 5.985,-32.617 -6.882,-32.617 c -17.755,0 -35.71,11.871 -35.809,35.709 0.099,23.84 18.054,35.808 35.809,35.808"
         style="fill:#ffffff;fill-opacity:1;fill-rule:nonzero;stroke:none"
         transform="matrix(1.3333333,0,0,-1.3333333,462.44333,423.92973)"
         clip-path="url(#clipPath46)" />
      <path
         id="path47"
         d="m 0,0 c -4.39,-8.479 -12.069,-12.568 -21.347,-12.568 -12.866,0 -26.033,9.576 -26.033,26.931 0,17.457 13.167,27.132 26.033,27.132 8.978,0 16.559,-3.79 20.948,-11.571 h 1.197 c -4.589,8.28 -12.768,12.469 -22.145,12.469 -13.465,0 -27.03,-9.876 -27.03,-28.03 0,-18.052 13.565,-28.027 27.03,-27.927 9.576,0 18.354,4.787 22.543,13.564 z m -21.347,50.072 c 14.464,0 30.124,-7.88 32.818,-26.531 H -6.085 c -2.493,7.082 -7.78,10.272 -15.262,10.272 -10.472,0 -17.355,-7.879 -17.355,-19.45 0,-10.273 6.783,-19.25 17.355,-19.349 7.58,0 13.666,3.789 15.562,11.271 H 11.77 c -2.593,-19.75 -18.253,-27.531 -33.117,-27.531 -17.754,-0.1 -35.709,11.871 -35.808,35.609 0.099,23.741 18.054,35.709 35.808,35.709"
         style="fill:#ffffff;fill-opacity:1;fill-rule:nonzero;stroke:none"
         transform="matrix(1.3333333,0,0,-1.3333333,581.6028,438.9584)"
         clip-path="url(#clipPath48)" />
      <path
         id="path49"
         d="m 0,0 c -4.389,-8.479 -12.069,-12.568 -21.346,-12.568 -12.867,0 -26.034,9.576 -26.034,26.931 0,17.457 13.167,27.132 26.034,27.132 8.978,0 16.558,-3.79 20.948,-11.571 h 1.196 c -4.588,8.28 -12.768,12.469 -22.144,12.469 -13.467,0 -27.031,-9.876 -27.031,-28.03 0,-18.052 13.564,-28.027 27.031,-27.927 9.575,0 18.354,4.787 22.543,13.564 z m -21.346,50.072 c 14.463,0 30.124,-7.88 32.817,-26.531 H -6.084 c -2.494,7.082 -7.78,10.272 -15.262,10.272 -10.473,0 -17.355,-7.879 -17.355,-19.45 0,-10.273 6.782,-19.25 17.355,-19.349 7.581,0 13.665,3.789 15.561,11.271 h 17.556 c -2.594,-19.75 -18.254,-27.531 -33.117,-27.531 -17.755,-0.1 -35.709,11.871 -35.808,35.609 0.099,23.741 18.053,35.709 35.808,35.709"
         style="fill:#ffffff;fill-opacity:1;fill-rule:nonzero;stroke:none"
         transform="matrix(1.3333333,0,0,-1.3333333,683.47133,438.9584)"
         clip-path="url(#clipPath50)" />
    </g>
  </g>
</svg>
