<?xml version="1.0" encoding="UTF-8"?>
<svg xmlns="http://www.w3.org/2000/svg" id="Capa_1" viewBox="0 0 2087.28 552.5">
  <defs>
    <style>.cls-1{fill:#fdbd09;}.cls-2{isolation:isolate;}.cls-3{fill:#fff;}</style>
  </defs>
  <g id="Capa_1-2">
    <polygon class="cls-1" points="440.8 109.9 441.1 110.2 441.1 331.2 441 331.2 441 552.5 222.8 552.5 222.8 331.2 0 331.2 0 109.9 440.8 109.9"></polygon>
    <rect class="cls-1" x="441.1" width="109.9" height="109.9"></rect>
    <polygon class="cls-1" points="551 109.9 551 220.5 441.1 110.2 441.1 109.9 440.8 109.9 331.3 0 441.1 0 551 109.9"></polygon>
    <polygon class="cls-1" points="441.1 109.9 441.1 110.2 440.8 109.9 441.1 109.9"></polygon>
    <polygon class="cls-1" points="441.1 109.9 441.1 110.2 440.8 109.9 441.1 109.9"></polygon>
    <g class="cls-2">
      <g class="cls-2">
        <g class="cls-2">
          <g class="cls-2">
            <g class="cls-2">
              <g class="cls-2">
                <path class="cls-3" d="M867.17,355.73v47.57h-164.37v-246.01h55.38v198.44h108.99Z"></path>
                <path class="cls-3" d="M1073.77,309.58c0,14.68-2.13,28.11-6.39,40.29-4.26,12.19-10.42,22.6-18.46,31.24-8.05,8.64-17.69,15.33-28.93,20.06-11.24,4.73-23.85,7.1-37.81,7.1s-26.21-2.37-37.45-7.1c-11.24-4.73-20.89-11.42-28.93-20.06-8.05-8.64-14.32-19.05-18.81-31.24-4.5-12.19-6.75-25.62-6.75-40.29s2.31-28.04,6.92-40.12c4.62-12.07,11-22.37,19.17-30.88,8.17-8.52,17.87-15.14,29.11-19.88,11.24-4.73,23.49-7.1,36.74-7.1s25.85,2.37,37.1,7.1c11.24,4.74,20.88,11.36,28.93,19.88,8.04,8.52,14.32,18.81,18.82,30.88,4.49,12.07,6.74,25.44,6.74,40.12ZM1019.81,309.58c0-16.33-3.26-29.17-9.76-38.52-6.51-9.35-15.8-14.02-27.87-14.02s-21.42,4.68-28.04,14.02c-6.63,9.35-9.94,22.19-9.94,38.52s3.31,29.29,9.94,38.87c6.62,9.58,15.98,14.38,28.04,14.38s21.36-4.79,27.87-14.38c6.51-9.58,9.76-22.54,9.76-38.87Z"></path>
                <path class="cls-3" d="M1275.76,379.87c0,30.53-7.75,53.19-23.25,67.98-15.5,14.79-39.47,22.19-71.89,22.19-11.36,0-22.72-1.01-34.08-3.02-11.36-2.01-21.89-4.68-31.59-7.99l9.23-44.38c8.28,3.31,16.98,5.91,26.09,7.81,9.11,1.89,19.46,2.84,31.06,2.84,15.14,0,25.85-3.32,32.13-9.94,6.27-6.63,9.41-15.14,9.41-25.56v-6.75c-5.68,2.61-11.54,4.56-17.57,5.86-6.04,1.3-12.6,1.95-19.7,1.95-25.8,0-45.56-7.63-59.29-22.9-13.73-15.27-20.59-36.62-20.59-64.08,0-13.72,2.13-26.21,6.39-37.45,4.26-11.24,10.47-20.88,18.64-28.93,8.17-8.04,18.16-14.25,30-18.64,11.83-4.38,25.21-6.57,40.12-6.57,6.39,0,12.96.3,19.7.89,6.75.59,13.43,1.36,20.06,2.31,6.62.95,12.96,2.07,18.99,3.37,6.04,1.3,11.42,2.66,16.15,4.08v156.91ZM1159.68,303.9c0,29.59,11.95,44.38,35.86,44.38,5.44,0,10.53-.71,15.26-2.13,4.73-1.42,8.75-3.07,12.07-4.97v-84.49c-2.61-.47-5.68-.89-9.23-1.24-3.55-.36-7.69-.53-12.42-.53-13.97,0-24.38,4.61-31.24,13.84-6.87,9.23-10.29,20.95-10.29,35.14Z"></path>
                <path class="cls-3" d="M1428.06,304.25c0-17.04-2.19-29.11-6.57-36.21-4.38-7.1-11.89-10.65-22.54-10.65-3.32,0-6.75.18-10.29.53-3.55.35-6.98.77-10.29,1.24v144.13h-52.9v-180.34c4.49-1.18,9.76-2.42,15.8-3.73,6.04-1.3,12.42-2.49,19.17-3.55,6.75-1.07,13.67-1.89,20.77-2.49,7.1-.59,14.08-.89,20.94-.89,13.49,0,24.43,1.72,32.84,5.15,8.4,3.43,15.32,7.52,20.77,12.25,7.57-5.44,16.27-9.7,26.09-12.78,9.82-3.07,18.87-4.62,27.16-4.62,14.91,0,27.16,2.08,36.74,6.21,9.58,4.14,17.22,10,22.9,17.57,5.68,7.58,9.58,16.57,11.72,26.98,2.13,10.42,3.19,22.01,3.19,34.79v105.43h-52.89v-99.04c0-17.04-2.19-29.11-6.57-36.21-4.38-7.1-11.89-10.65-22.54-10.65-2.84,0-6.81.71-11.89,2.13-5.09,1.42-9.29,3.2-12.6,5.33,1.65,5.45,2.72,11.18,3.2,17.22.47,6.04.71,12.49.71,19.35v101.88h-52.9v-99.04Z"></path>
                <path class="cls-3" d="M1622.6,311.35c0-16.56,2.54-31.06,7.63-43.49,5.09-12.42,11.77-22.78,20.06-31.06s17.81-14.55,28.58-18.81c10.77-4.26,21.83-6.39,33.19-6.39,26.5,0,47.45,8.11,62.83,24.32,15.38,16.21,23.08,40.06,23.08,71.53,0,3.08-.12,6.45-.35,10.12-.24,3.67-.48,6.92-.71,9.76h-119.99c1.18,10.89,6.27,19.52,15.26,25.92,8.99,6.39,21.06,9.58,36.21,9.58,9.7,0,19.23-.89,28.58-2.66,9.35-1.77,16.98-3.96,22.9-6.57l7.1,42.96c-2.84,1.42-6.63,2.84-11.36,4.26-4.74,1.42-10,2.66-15.8,3.73-5.8,1.07-12.01,1.95-18.64,2.66-6.63.71-13.26,1.06-19.88,1.06-16.81,0-31.42-2.48-43.84-7.46-12.42-4.97-22.72-11.77-30.88-20.41-8.17-8.64-14.2-18.87-18.11-30.71-3.9-11.83-5.86-24.61-5.86-38.34ZM1746.85,291.12c-.24-4.49-1.01-8.88-2.31-13.14-1.3-4.26-3.32-8.04-6.04-11.36-2.72-3.31-6.16-6.04-10.29-8.17-4.14-2.13-9.29-3.2-15.44-3.2s-11,1.01-15.26,3.02c-4.26,2.01-7.81,4.68-10.65,7.99-2.84,3.32-5.03,7.16-6.57,11.54-1.54,4.38-2.66,8.82-3.37,13.31h69.93Z"></path>
                <path class="cls-3" d="M1912.79,268.92l37.12-52.35h54.67l-64.81,90.8c14.85,17.06,28.04,34.01,39.58,50.87,11.53,16.85,20.77,31.87,27.72,45.06h-56.73c-1.93-3.56-4.31-8-7.14-13.33-2.84-5.33-6.03-10.89-9.57-16.7-3.55-5.8-7.25-10.72-11.11-14.74-3.86-4.03-7.67-7.69-11.41-10.98-3.58,3.06-7.22,6.45-10.91,10.16-3.69,3.71-7.21,8.34-10.53,13.9-3.33,5.55-6.59,11.04-9.8,16.48s-6.06,10.51-8.55,15.22h-53.81c2.97-5.82,6.9-12.79,11.78-20.9,4.88-8.11,10.23-16.47,16.05-25.09,5.82-8.62,12.12-17,18.89-25.13,6.77-8.13,13.42-15.76,19.95-22.9-11.61-16.5-22.77-32.35-33.48-47.57-10.72-15.22-21.31-30.26-31.77-45.14h57.16l36.72,52.35Z"></path>
              </g>
            </g>
          </g>
          <g class="cls-2">
            <g class="cls-2">
              <g class="cls-2">
                <path class="cls-1" d="M2087.28,375.25c0,10.65-3.37,18.76-10.12,24.32s-14.38,8.34-22.9,8.34-16.15-2.79-22.9-8.34-10.12-13.67-10.12-24.32,3.37-18.75,10.12-24.32c6.75-5.56,14.38-8.34,22.9-8.34s16.15,2.78,22.9,8.34c6.75,5.56,10.12,13.67,10.12,24.32Z"></path>
              </g>
            </g>
          </g>
        </g>
      </g>
    </g>
  </g>
</svg>
